<?xml version="1.0" encoding="UTF-8" standalone="no"?><!DOCTYPE svg PUBLIC "-//W3C//DTD SVG 1.1//EN" "http://www.w3.org/Graphics/SVG/1.1/DTD/svg11.dtd"><svg width="100%" height="100%" viewBox="0 0 2500 2500" version="1.1" xmlns="http://www.w3.org/2000/svg" xmlns:xlink="http://www.w3.org/1999/xlink" xml:space="preserve" xmlns:serif="http://www.serif.com/" style="fill-rule:evenodd;clip-rule:evenodd;stroke-linejoin:round;stroke-miterlimit:2;"><g id="Layer-4" serif:id="Layer 4"><path d="M1026.77,1112.13l-42.25,86.1l-131.695,-64.625c-0,-0 -0.68,-41.309 -16.388,-26.425c-15.658,14.9 -45.312,100.908 -8.167,114.933c37.105,14.004 105.138,16.237 128.246,63.096c0,-0 62.371,-19.809 69.534,-58.196c-0,-0 -4.85,-77.838 36.962,-107.567c0,0 -33.846,111.663 -3.617,152.467l-107.716,46.387l-29.459,-14.458l-72.82,46c-0,0 191.637,91.908 249.487,183.154l67.954,-44.187c0,-0 -3.421,-100.109 -36.916,-194.071l72.033,1.079c74.112,223.675 -20.592,286.925 -20.592,286.925c177.492,-62.837 87.463,-276.425 87.463,-276.425c19.646,-6.454 45.196,-8.046 73.662,-6.458c0.596,0.012 1.167,0.075 1.8,0.112c19.463,1.15 40.313,3.796 61.5,7.425c1.754,0.321 3.534,0.592 5.329,0.929c107.413,19.046 222.388,61.713 222.388,61.713l18.946,-85.529l-245.117,-172.496c2.233,14.571 4.204,29.233 5.933,43.942c0.375,3.241 1.667,14.62 1.667,14.62c0.85,8.384 1.633,16.571 2.35,24.78c0.363,4.045 0.654,8.125 0.904,12.175l115.617,82.158c-26.692,-13.1 -69.517,-21.892 -113.238,-27.854c-4.104,-0.538 -13.754,-1.784 -14.537,-1.842c-21.379,-2.579 -42.529,-4.5 -61.733,-5.958c-1.734,-0.138 -11.592,-0.829 -14.75,-1.071c-37.613,-2.413 -64.517,-2.958 -64.517,-2.958c-0.963,-15.15 -19.542,-165.196 -19.542,-165.196l74.921,50.129c-0.171,-1.663 -0.4,-3.196 -0.608,-4.658c-2.913,-22.984 -6.392,-46.242 -10.717,-71.338c-0.046,-0.242 -1.9,-10.912 -2.812,-16.054l-44.742,-33.471l-72.721,62.8c-21.142,45.988 -8.9,128.217 1.388,177.188l-70.596,15.116c-0,0 -44.063,-153.608 47.696,-263.646c-0,0 -105.634,52.925 -140.53,111.255Zm-37.829,226.529l69.617,-26.571c-7.446,15.179 38.696,113.279 38.696,113.279l-108.313,-86.708Z" style="fill:url(#_Linear1);fill-rule:nonzero;"/><path d="M1244.39,582.81c-17.613,12.312 -29.246,35.241 -17.409,50.929c9.042,37.716 18.238,74.908 27.113,110.858c3.433,14.017 6.846,27.858 10.233,41.629c-38.183,5.767 -61.283,16.146 -69.646,31.521c-7.258,13.238 -1.029,26.338 3.788,31.975l16.154,-10.462c-0.088,-0.042 -5.175,-6.355 -1.454,-13.155c3.066,-5.587 14.358,-15.92 55.521,-22.079c19.566,80.096 37.529,156.567 50.979,230.55c1.329,7.088 2.562,14.134 3.754,21.159c0.067,0.191 0.092,0.366 0.112,0.541c3.084,25.079 7.388,47.329 10.788,71.859c0.279,1.883 1.721,13.612 2.15,17.529c0.558,4.862 1.104,9.766 1.621,14.6c2.754,26.508 4.75,52.804 5.754,78.996c0.679,0.058 1.25,0.116 1.625,0.141c21.346,1.634 41.579,3.542 60.087,5.75c-0.337,-9.766 -0.854,-19.621 -1.491,-29.65c-0.442,-6.216 -0.888,-12.541 -1.434,-18.875c-0.7,-8.137 -1.458,-16.262 -2.287,-24.358c-0.563,-4.863 -1.075,-9.696 -1.683,-14.579c-2.805,-23.746 -6.271,-47.492 -10.325,-71.029c-17.288,-100.859 -44.813,-199.096 -72.609,-286.884c14.059,-0.629 29.984,-0.946 48.104,-0.729c3.859,1.242 13.421,5.442 12.692,16.379l20.429,1.842c1.521,-22.446 -18.671,-33.333 -29.558,-35.95l-1.271,-0.296l-1.317,0.013c-20.066,-0.246 -38.22,0.062 -54.733,0.912c-12.533,-38.946 -24.967,-75.654 -36.367,-109.346c-3.966,-11.604 -7.75,-22.791 -11.358,-33.566c0.383,-1.009 2.517,-5.909 8.463,-7.905c6.4,-2.145 14.958,-0.458 25.445,4.959l0.467,0.283l0.454,-0.267c0.525,-0.291 13.109,-7.7 14.434,-21.179c1.02,-9.866 -4.38,-20.321 -15.959,-30.971c-7.825,-7.208 -16.475,-10.041 -24.879,-10.041c-9.675,-0 -19.021,3.75 -26.387,8.896Z" style="fill:url(#_Linear2);fill-rule:nonzero;"/><path d="M1230.66,1699.2l-2.271,3.85l3.613,-2.916c71.375,-57.95 121.408,-134.225 148.737,-226.613c13.546,-45.833 21.73,-96.433 24.434,-151.304c-1.1,-0.208 -2,-0.379 -2,-0.379c-21.6,-3.675 -41.575,-6.113 -59.35,-7.138c-4.934,128.25 -36.967,253.9 -113.163,384.5Z" style="fill:url(#_Linear3);fill-rule:nonzero;"/><path d="M1377.01,575.814c4.404,14.833 17.588,23.621 25.071,36.337c3.046,3.225 6.096,6.454 9.142,9.684c9.141,8.95 18.275,17.891 27.408,26.837c3.958,0.117 6.175,3.288 9.1,5.204c11.658,6.196 23.996,10.709 36.538,14.713c13.354,-1.284 22.308,7.191 31.866,14.325l28.525,17.362c-21.371,-1.054 -42.158,-0.008 -62.771,4.246l-7.887,0.813c-0.946,1.779 -2.508,1.995 -4.283,1.691c-1.559,0.263 -3.121,0.538 -4.684,0.804c-1.346,1.638 -3.091,2.03 -5.087,1.63c-1.6,0.191 -3.196,0.383 -4.796,0.575c-13.163,4.754 -26.329,9.5 -39.488,14.27c-7.77,2.821 -2.495,5.067 0.359,7.405c2.45,0.137 4.904,0.266 7.362,0.4c2.654,-0.2 5.2,0.029 7.338,1.875c3.237,0.17 6.483,0.341 9.725,0.516c14.6,1.609 29.204,3.221 43.804,4.829c11.746,0.863 23.487,1.725 35.233,2.592c12.667,0.088 25.329,0.171 38,0.258c2.696,-0.283 5.721,-2.154 7.567,1.588c2,-0.042 4.017,0.033 6.029,0.108c6.038,0.225 12.071,0.446 17.788,-2.508c6.866,-4.725 13.195,-4.792 19.75,1.096c6.887,6.187 14.379,11.725 21.604,17.546l-0.013,-0.03c4.1,3.03 8.2,6.055 14.288,10.55c-9.192,0.017 -15.292,-2.041 -21.304,-4.554c-2.425,-0.179 -4.85,-0.35 -7.28,-0.525c-1.916,0.3 -3.9,0.838 -5.245,-1.258c-4.75,-0.392 -25.725,-2.317 -31.455,-2.888c-7.258,-0.112 -14.516,-0.225 -21.775,-0.337c-9.25,0.825 -18.516,1.487 -27.737,2.529c-7.358,0.829 -9.683,3.717 -2.988,9.279c0.659,-0.366 1.155,-0.212 1.492,0.463c1.154,0.671 2.317,1.341 3.471,2.016c5.15,0.213 9.237,3.13 13.587,5.38c1.609,0.77 3.213,1.545 4.821,2.32c3.071,-0.779 4.85,1.971 7.379,2.684c6.884,2.704 14.067,4.733 20.15,9.175c0.692,-0.25 1.284,-0.104 1.784,0.433c2.137,-0.4 3.583,0.725 4.862,2.213c3.084,-0.771 4.879,1.858 7.334,2.754c14.625,5.579 29.245,11.154 43.87,16.729c4.559,-1.133 8.109,2.054 12.217,2.842l4.921,1.866c3.233,0.188 6.471,0.379 9.708,0.567c8.734,0.737 17.484,1.342 26.196,2.258c5.863,0.621 12.221,0.413 15.708,6.709c13.009,12.066 23.242,26.316 32.113,42.154c-10.954,-5.588 -21.917,-11.184 -32.875,-16.775c-3.442,-0.334 -6.767,-0.996 -9.529,-3.284c-2.129,0.338 -3.846,-0.27 -5,-2.17l-1.175,0.025l-1.117,-0.384c-4.237,-1.016 -8.654,-1.525 -12.287,-4.283c-1.596,-0.221 -3.192,-0.446 -4.788,-0.667c-16.092,-3.971 -31.979,-8.937 -48.679,-9.954c-1,1.008 -4.779,0.663 -2.1,3.492c3.708,3.921 7.783,7.508 11.7,11.233c7.192,5.642 14.383,11.288 21.575,16.925c5.217,3.9 11.258,6.758 15.308,12.125c11.359,7.446 22.159,15.613 32.154,24.813c1.909,0.025 3.442,0.67 4.242,2.541c12.863,8.275 25.721,16.554 38.583,24.829c4.675,1.492 9.05,3.538 12.721,6.88c7.284,3.233 14.571,6.466 21.854,9.7c1.634,0.137 3.267,0.283 4.896,0.425c1.496,-0.392 2.504,0.162 3.084,1.554c2.291,2.129 3.775,4.675 4.045,7.858l0.6,0.554l-0.212,0.792l2.05,3.512l0.6,0.563l-0.213,0.796l2.05,3.512c1.984,1.975 3.146,4.284 2.942,7.154c6.579,11.3 11.033,23.409 14.921,37.392c-12.863,-11.675 -24.467,-22.212 -36.075,-32.746c-12.358,-7.304 -24.717,-14.608 -37.075,-21.912c-6.742,-3.192 -13.488,-6.384 -20.229,-9.575c-1.146,-0.638 -2.3,-1.275 -3.446,-1.917l-0.813,0.192l-0.579,-0.604c-3.633,-0.759 -7.041,-1.992 -9.775,-4.646c-1.708,1.004 -3.346,0.025 -4.987,-0.95c-2.146,-1.275 -4.292,-2.554 -6.575,0.583c6.662,8.113 13.329,16.225 19.987,24.338c2.113,2.42 4.225,4.837 6.329,7.258c15.934,16.637 25.846,37.496 39.284,55.875c6.146,8.404 13.112,16.204 19.708,24.279c17.458,14.65 34.65,29.517 54.05,41.8c10.267,6.5 6.229,19.333 8.467,29.363c0.225,2.383 0.454,4.77 0.683,7.158c1.675,2.229 2.138,4.737 1.671,7.45c0.258,4.825 0.517,9.654 0.771,14.483c3.533,8.475 1.754,17.25 0.716,26.196c-2.016,-6.983 -4.041,-13.967 -6.062,-20.954c-5.75,-9.454 -11.508,-18.904 -17.263,-28.358c-4.095,-4.38 -8.2,-8.755 -12.295,-13.134c-5.655,-5.362 -11.305,-10.725 -16.955,-16.091c-2.158,-1.959 -4.32,-3.921 -6.479,-5.884c-2.491,-0.891 -4.458,-2.375 -5.471,-4.912c-2.525,-2.413 -5.058,-4.829 -7.583,-7.238c-8.837,-8.154 -17.675,-16.312 -26.512,-24.462c3.412,20.804 12.695,39.837 18.175,60.012c0.508,1.875 0.75,3.829 1.112,5.746c4.763,11.617 9.529,23.233 14.288,34.85c0.208,1.35 0.412,2.696 0.62,4.042c4.05,5.033 5.5,11.158 7.271,17.15c14.904,28.158 31.734,54.912 55.542,76.625c4.833,4.416 -0.263,8.991 0.217,13.479c-0.03,1.646 -0.059,3.287 -0.084,4.929c-0.671,3.242 -1.337,6.488 -2.004,9.729c-0.133,2.442 -0.258,4.884 -0.392,7.321c0.446,2.733 0.1,5.263 -1.912,7.35c-0.163,2.421 -0.325,4.842 -0.488,7.258l-5.591,30.255c-0.717,0.004 -1.434,0.016 -2.15,0.025c-1.467,-10.013 -2.929,-20.03 -4.392,-30.038c-1.792,-1.254 -2.308,-2.987 -1.875,-5.087c-0.921,-2.45 -1.842,-4.905 -2.762,-7.35c-1.659,-3.242 -3.321,-6.48 -4.988,-9.713c0,0 -11.279,-20.337 -12.192,-21.925c-2.025,-0.862 -2.304,-2.662 -2.433,-4.542c-2.95,-1.7 -3.792,-4.741 -4.879,-7.637c-2.025,-0.863 -2.304,-2.667 -2.438,-4.546c-8.22,-12.258 -16.445,-24.517 -24.666,-36.775c-2.609,-2.279 -5.221,-4.558 -9.667,-8.437l0,32.708c0.188,12.196 3.971,24.158 2.438,36.467l0.687,14.466c1.917,3.071 1.917,6.45 1.671,9.884c0.058,4.079 0.121,8.166 0.179,12.245c3.446,11.921 2.913,24.355 4.775,36.48c5.504,24.554 16.704,46.616 29.683,67.916c5.934,3.504 7.6,7.534 3.834,14.263c-5.725,10.229 -10.363,21.066 -15.459,31.646c-1.433,5.745 -4.145,10.82 -7.979,15.312c-3.262,7.246 -5.341,15.317 -14.912,20.967c4.237,-14.596 1.912,-27.584 3.037,-40.425c-0.279,-5.613 -0.558,-11.217 -0.837,-16.825c-1.688,-1.359 -1.584,-3.204 -1.359,-5.079c-0.4,-3.971 -0.791,-7.946 -1.187,-11.921c-3.154,-13.113 -6.308,-26.225 -9.463,-39.338c-6.041,-9.912 -6.75,-22.241 -14.27,-31.483c-7.667,-0.717 -7.067,5.146 -7.221,9.675c-0.292,8.45 -1.963,16.567 -4.496,24.554c-1.258,11.629 -4.342,22.821 -8.029,33.871c-4.913,24.337 -9.821,48.671 -14.729,73.012c0.158,10.542 0.32,21.084 0.479,31.625c1.987,2.096 2.362,4.617 1.916,7.346c0.125,1.638 0.242,3.275 0.363,4.913c1.45,1.283 2.571,2.708 2.079,4.833c1.15,5.875 5.396,10.808 5.229,17.092c9.425,13.354 -6.221,16.358 -10.037,24.25c-10.975,12.433 -21.954,24.866 -32.925,37.304c-2.359,-10.363 4.316,-19.358 4.641,-29.546c0.18,-5.592 1.021,-11.708 2.371,-17.458c0.638,-14.588 1.279,-29.179 1.921,-43.771l-0.462,-12.013c-1.913,-3.062 -1.921,-6.45 -1.675,-9.883c-0.142,-4.883 -0.288,-9.767 -0.43,-14.654c-0.941,-2.942 -1.883,-5.883 -3.062,-9.567c-9.867,15.738 -16.842,32.3 -27.704,46.513c-3.4,7.762 -7.867,14.866 -13.096,21.512c-3.967,7.892 -8.233,15.588 -14.379,22.063c-0.996,3.012 -2.113,5.937 -4.921,7.808c0.442,2.792 -0.95,4.821 -2.767,6.683c-0.771,1.617 -4.191,9.746 -5.125,12.192c-5.571,17.438 -5.912,35.775 -9.321,53.583c-0.12,7.309 -0.237,14.613 -0.354,21.921c1.067,4.042 -0.85,6.271 -4.533,7.417c-5.883,4.725 -11.763,9.446 -18.888,12.262c-1.908,2.809 -4.779,4.046 -7.908,4.863c-0.667,2.142 -2.383,2.446 -4.275,2.442c-7.621,6.537 -16.287,11.2 -27.517,15.545c7.075,-11.245 13.138,-20.887 19.205,-30.525c0.858,-4.416 2.608,-8.441 5.325,-12.041c4.779,-14.638 9.566,-29.275 14.345,-43.913c0.159,-1.608 0.321,-3.212 0.48,-4.821c-0.409,-1.995 -0.03,-3.737 1.612,-5.079c0.213,-6.575 0.733,-13.1 3.267,-19.283c-1.188,-1.142 1.504,-7.742 -4.021,-2.813c-10.254,9.163 -20.767,18.042 -30.8,27.43c-30.017,28.087 -61.867,54.47 -84.288,89.679c-2.795,6.587 -5.591,13.166 -8.391,19.75c-0.725,4.675 -1.6,9.337 -2.138,14.037c-0.504,4.463 -1.929,7.775 -7.191,7.625c-6.396,3.063 -12.917,5.638 -20.175,5.563c-11.859,5.496 -24.396,8.071 -37.434,9.041c9.904,-7.004 16.375,-17.208 25.659,-24.412c16.279,-20.504 34.77,-39.717 40.5,-69.504c-26.38,11.933 -51.313,21.925 -76.805,30.416c-3.316,0.734 -5.962,3.73 -9.745,2.938l-26.842,14.587c-8.008,7.321 -16.013,14.65 -24.021,21.971c-4.975,6.538 -9.954,13.084 -14.929,19.625c-0.888,1.546 -3.996,6.95 -4.671,8.104c-0.171,2.913 -0.337,5.821 -0.508,8.73c0.479,1.937 -0.584,2.287 -2.171,2.07c-8.946,0.175 -17.892,0.346 -26.842,0.517c-12.216,2.254 -24.4,0.679 -36.587,-0.296c-2.459,-0.037 -4.917,-0.083 -7.375,-0.125c-1.684,0.254 -2.325,-0.721 -2.575,-2.162c-2.488,-0.85 -2.279,-2.925 -2.254,-4.921c-0.771,-1.621 -1.546,-3.242 -2.317,-4.854l-0.6,-0.563l0.212,-0.791c-0.679,-1.167 -1.366,-2.338 -2.05,-3.509l-0.6,-0.566l0.213,-0.796c-0.679,-1.171 -1.367,-2.342 -2.05,-3.509l-0.596,-0.562l0.213,-0.792c-0.725,-1.183 -6.25,-9.621 -8.284,-12.662c-4.587,-5.038 -9.179,-10.088 -13.771,-15.125c-20.02,-16.546 -45.02,-23.184 -67.879,-34.088c-13.087,-2.596 -25.2,-7.825 -37.004,-13.858c-7.796,-2.238 -14.983,-5.729 -21.571,-10.454l-1.171,-0.167l-1.179,0.117c0.429,10.491 7.096,18.812 9.938,28.466c6.554,9.105 13.112,18.213 19.671,27.313c0.712,0.746 1.425,1.483 2.137,2.229c11.742,13.692 24.708,26.171 38.217,38.567c-15.863,-2.013 -31.2,-5.079 -45.925,-10.779l-4.617,-1.025c-4.437,-0.771 -8.896,-1.484 -12.6,-4.388l-1.079,0.179l-0.954,-0.529c-1.634,0.179 -2.396,-0.475 -2.075,-2.158c-0.121,-2.454 -0.238,-4.904 -0.354,-7.359c-3.321,-12.483 -6.346,-25.075 -13.238,-36.262c-1.546,-2.379 -3.087,-4.75 -4.633,-7.129c-8.788,-9.854 -17.575,-19.704 -26.367,-29.563c-3.046,-1.654 -5.396,-4.004 -7.05,-7.046c-10.462,-9.887 -34.75,-32.925 -36.433,-34.55c-10.925,-10.437 -33.896,-32.429 -34.45,-32.983c-0.804,0.033 -1.779,-0.854 -2.754,-1.742c-2.063,-1.883 -4.13,-3.766 -4.58,3.088c0.225,1.575 0.455,3.15 0.684,4.725c1.65,2.237 2.208,4.721 1.716,7.454l3.421,16.763c1.359,5.162 2.717,10.325 4.075,15.491l-0.271,-0.079c1.513,2.021 3.246,3.954 2.567,6.796c0.192,2.117 0.379,4.233 0.571,6.35c0.687,1.137 1.375,2.271 2.058,3.404c2.05,2.033 3.046,4.425 2.563,7.333c7.791,16.359 14.858,33.125 26.379,47.421l2.062,3.259c-1.937,0.77 -3.57,0.704 -4.416,-1.58c-14.688,-6.841 -28.875,-14.541 -41.713,-24.525c-7.041,-5.779 -21.366,-4.716 -18.566,-19.733c3.004,-12.162 1.4,-24.317 -0,-36.475c-1.775,-7.979 -3.546,-15.962 -5.321,-23.946c-1.809,-1.316 -2.388,-3.121 -2.084,-5.271c-1.087,-2.366 -3.266,-4.379 -2.445,-7.379c-2.438,-5.662 -4.871,-11.333 -7.309,-17c-0.558,-0.491 -0.696,-1.087 -0.421,-1.775c-0.704,-1.033 -1.416,-2.062 -2.12,-3.096c-0.68,-0.333 -0.834,-0.829 -0.475,-1.487c-17.259,-28.583 -36.821,-55.796 -51.034,-86.179c-2.862,-4.009 -5.721,-8.017 -8.579,-12.029c-0.433,16.166 -0.858,32.329 -1.292,48.495l0,36.584c2.15,19.3 0.813,39.166 9.396,57.725c-9.279,-6.779 -18.187,-13.675 -24.412,-23.417c-9.221,-7.733 -16.796,-16.962 -24.354,-26.25c-2.605,-3.2 -4.717,-5.617 0.312,-8.179c3.442,-12.138 6.879,-24.275 10.321,-36.417c0.062,-1.646 0.125,-3.291 0.187,-4.937c-0.25,-3.425 -0.245,-6.804 1.667,-9.867l0.338,-21.754c-2.309,-12.979 -4.621,-25.958 -6.93,-38.933l-0.516,-4.834c-0.588,-1.633 -1.175,-3.262 -1.763,-4.904c-0.333,-2.367 -0.662,-4.733 -0.991,-7.104c-1.65,-1.346 -1.946,-3.108 -1.596,-5.075c-0.171,-1.617 -0.342,-3.233 -0.517,-4.85c-2.971,-6.958 -4.387,-14.3 -5.275,-21.767c-6.033,-19.116 -10.558,-38.546 -11.837,-58.621c-1.28,0.088 -2.555,0.171 -3.83,0.259c-12.85,24.454 -17.766,51.466 -25.054,77.712l-0.679,7.263l-1.758,4.904c-0.175,2.425 -0.35,4.842 -0.525,7.262c-4.954,21.759 0.691,43.209 2.421,64.917c-10.842,-17.242 -22.146,-33.8 -29.2,-52.671c-2.496,-0.666 -2.305,-2.846 -2.65,-4.716c-0.642,-0.938 -1.355,-1.834 -1.905,-2.817c-8.283,-14.821 -14.516,-28.017 3.584,-42.275c10.096,-7.95 13.762,-22.883 18.912,-35.392l2.188,-5.054c-0.538,-2.112 0.637,-3.542 1.954,-4.912c0.187,-2.421 0.379,-4.85 0.562,-7.275l6.55,-46.421c0.259,-4.825 0.513,-9.65 0.767,-14.475c0.033,-4.171 -0.529,-8.425 1.667,-12.304c0.2,-2.388 0.4,-4.78 0.596,-7.167c-0.305,-9.842 -0.859,-19.704 1.841,-29.363c0.154,-2.387 0.313,-4.77 0.471,-7.158c-0.008,-8.992 -0.017,-17.987 -0.021,-26.983c-8.696,0.721 -11.125,8.329 -15.425,13.921c-2.812,3.654 -5.812,7.158 -8.729,10.733c-3.312,4.971 -6.617,9.942 -9.925,14.912c-0.15,1.867 -0.421,3.663 -2.446,4.513c-1.087,2.896 -1.933,5.937 -4.879,7.637c-0.146,1.859 -0.021,3.85 -2.362,4.567c-1.192,2.763 -1.942,5.813 -4.809,7.492c-5.275,13.633 -13.658,25.979 -16.708,40.537c-2.963,14.179 -5.621,28.392 -6.421,43.1c-4.533,-15.6 -9.433,-31.05 -10.967,-47.316c-0.116,-1.625 -0.237,-3.255 -0.354,-4.88c-0.496,-1.608 -0.991,-3.22 -1.491,-4.833c-0.971,-8.967 -4.475,-17.65 -3.021,-26.887c-0.329,-3.813 -2.6,-7.721 0.558,-11.367c-0.667,0.433 -1.337,0.862 -2.008,1.296c0.037,-0.175 0.021,-0.459 0.121,-0.509c0.6,-0.295 1.233,-0.537 1.85,-0.8c7.212,1.559 8.308,-6.141 12.925,-8.512c1.695,-5.329 5.97,-8.517 9.954,-11.954c1.141,-1.863 2.291,-3.725 3.437,-5.588c0.104,-0.546 0.413,-0.925 0.925,-1.129c7.425,-10.012 14.838,-20.025 22.254,-30.042c0.5,-1.833 0.655,-3.895 2.984,-4.529c6.608,-15.396 13.221,-30.791 19.829,-46.187c1.65,-9.45 5.146,-18.292 8.867,-27.059c-0,0 9.9,-29.237 12.387,-36.479c1.929,-7.483 3.85,-14.966 5.879,-22.862c-3.933,-1.1 -4.762,3.416 -7.562,3.616c-6.671,5.692 -13.338,11.384 -20.013,17.075c-6.308,5.796 -12.621,11.584 -18.933,17.384c-7.004,7.275 -14.004,14.55 -21.004,21.829c-5.138,6.758 -10.275,13.517 -15.413,20.275c-2.641,5.333 -5.287,10.662 -7.933,15.992c-3.629,10.566 -7.254,21.129 -10.888,31.691c-0.991,-0.154 -1.987,-0.312 -2.979,-0.471c1.8,-14.462 0.817,-29.079 4.392,-43.45c0.146,-3.25 0.287,-6.5 0.433,-9.75c0.667,-3.25 1.338,-6.491 2.004,-9.737c0.121,-1.621 0.238,-3.25 0.355,-4.875c2.745,-10.779 -3.496,-25.913 14.258,-29.438c3.45,-3.083 7.042,-5.95 11.596,-7.283c8.279,-6.646 16.558,-13.292 24.837,-19.937c5.634,-5.505 11.263,-11.009 16.896,-16.509c5.25,-8.725 12.388,-15.825 19.596,-22.871c1.967,-5.479 6.2,-9.329 9.833,-13.612c8.954,-12.204 17.913,-24.413 26.867,-36.617c9.317,-12.104 18.637,-24.212 27.958,-36.316c-0.112,-0.921 -0.221,-1.846 -0.329,-2.767c-1.833,-0.025 -3.662,-0.054 -5.492,-0.083c-2.529,0.708 -4.312,3.45 -7.383,2.683c-11.333,5.792 -22.679,11.587 -34.021,17.375c-2.525,2.621 -5.466,4.471 -9.171,4.879c-18.679,12.958 -39.687,22.754 -54.816,40.504c-4.375,5.134 -8.804,10.221 -15.388,17.846c4.617,-19.771 12.438,-34.85 18.667,-50.517c5.017,-12.616 11.287,-21.862 26.433,-25.629c19.313,-4.804 35.65,-17.525 53.434,-26.508c1.587,-2.933 4.45,-3.95 7.366,-4.883c1.704,-2.817 4.696,-3.675 7.467,-4.863c2.342,-1.592 4.683,-3.179 7.029,-4.762c4.421,-3.609 13.933,-11.38 13.933,-11.38c1.934,-1.17 3.863,-2.341 5.8,-3.516c0.763,-0.709 1.525,-1.417 2.288,-2.129l7.371,-5.459c1.625,-1.421 3.246,-2.846 4.871,-4.271c2.47,-1.729 4.941,-3.462 7.412,-5.195c2.279,-3.705 5.346,-6.48 9.483,-7.98c5.746,-4.541 11.492,-9.079 17.238,-13.616c2.442,-1.829 4.879,-3.65 7.321,-5.475c0.846,-2.959 6.3,-3.759 4.358,-7.617c-1.012,-2.008 -3.087,-1.729 -5.142,-1.454c-0.887,0.121 -1.766,0.242 -2.554,0.179c-2.808,-0.225 -5.658,0.063 -8.483,0.125c-1.221,1.858 -3.008,2.075 -4.992,1.746c-1.65,0.096 -3.3,0.196 -4.95,0.292c-16.233,4.833 -32.466,9.666 -48.7,14.5c-2.287,1.341 -4.358,3.32 -7.379,2.55c-3.233,1.587 -14.4,6.883 -16.75,7.945c-8.125,4.734 -16.254,9.467 -24.379,14.2c-0.963,1.805 -2.533,3.771 -4.363,2.146c-2.066,-1.829 0.355,-3.308 1.684,-4.616c5.908,-10.771 14.112,-19.813 21.979,-29.109c2.075,-4.208 5.125,-7.562 8.983,-10.2c5.342,-13.083 17.692,-10.554 27.654,-11.225c13.142,-0.883 26.009,-2.871 38.892,-5.196c12.992,-4.116 25.979,-8.233 38.967,-12.35c2.271,-1.37 4.358,-3.237 7.337,-2.658c1.279,-1.475 2.721,-2.608 4.854,-2.212c4.417,-1.859 8.834,-3.725 13.25,-5.588c3.334,-2.229 6.688,-4.421 10.921,-4.462c2.5,-3.313 6.35,-3.68 9.967,-4.563c3.817,-2.3 7.583,-4.721 12.208,-5.096c1.284,-1.475 2.725,-2.608 4.859,-2.212c2.133,-1.642 4.287,-3.225 7.204,-2.954c3.566,-5.142 15.262,-3.421 13.45,-10.584c-1.084,-4.271 -7.013,-4.221 -12.521,-4.171c-1.733,0.017 -3.421,0.034 -4.904,-0.087c-10.804,-0.854 -21.642,-1.271 -32.471,-1.871c-2.371,0.113 -4.75,0.221 -7.125,0.333c-21.725,2.98 -43.992,2.771 -64.833,10.988c-1.055,0.042 -2.855,0.446 -3.046,0.058c-0.754,-1.529 0.812,-1.475 1.737,-1.791c10.25,-10.825 22.625,-19.021 34.534,-27.788c0.179,-0.646 0.612,-1.008 1.283,-1.079c1.821,-0.979 3.637,-1.958 5.454,-2.938c0.442,-1.254 1.058,-2.275 2.692,-1.866c2.166,-0.734 3.925,0.175 5.683,1.087c1.329,0.684 2.654,1.371 4.154,1.35c1.992,-0.408 3.738,-0.033 5.084,1.609c3.179,0.291 6.362,0.575 9.545,0.862c13.7,2.538 27.575,1.942 41.396,2.304c3.192,-0.2 6.392,-0.396 9.588,-0.591c3.204,-1.813 6.671,-1.75 10.129,-1.688c0.737,0.013 11.829,-0.6 16.637,-0.912c12.134,-2.459 24.421,-3.596 36.78,-4.021c4.012,-0.229 8.02,-0.459 12.033,-0.688c3.071,-1.921 6.467,-1.916 9.9,-1.666c4.837,-0.255 9.671,-0.513 14.508,-0.771c3.642,-2.242 7.767,-1.913 11.746,-2c2.65,-0.063 5.896,-0.921 6.133,-2.813c0.35,-2.791 -3.554,-3.266 -5.458,-4.941c-5.067,-2.213 -10.125,-4.425 -15.192,-6.634c-11.204,-3.416 -22.408,-6.837 -33.612,-10.254c-1.654,-0.096 -3.304,-0.196 -4.958,-0.296c-1.605,-0.641 -3.213,-1.283 -4.821,-1.921l-7.342,-0.466l-7.317,-1.892c-3.25,-0.142 -6.495,-0.287 -9.745,-0.437c-19.271,-0.296 -38.575,-1.455 -60.671,3.337c13.3,-10.042 24.066,-18.571 36.187,-25.275c5.917,-6.537 12.55,-11.35 22.092,-9.15c11.967,-3.342 24.817,-2.883 36.279,-8.404c0.958,-1.942 2.758,-1.742 4.475,-1.763c1.838,-2.916 4.896,-3.887 7.892,-4.958c3.491,-3.158 7.179,-5.992 11.879,-7.146c3.958,-5.371 8.721,-9.812 14.8,-12.725c8.071,-7.937 16.142,-15.875 24.212,-23.812c3.363,-4.075 6.73,-8.154 10.096,-12.225c1.509,-1.609 3.021,-3.217 4.529,-4.825c1.725,-2.509 3.45,-5.013 5.171,-7.513c1.004,-3.162 2.013,-6.325 3.017,-9.487l-0.467,-2.35l-4.879,-0c-14.267,5.304 -28.829,9.55 -43.871,12.054c-2.762,2.721 -6.2,2.9 -9.771,2.558c-1.279,1.463 -2.75,2.471 -4.833,2.038c-6.371,2.046 -12.746,4.087 -19.117,6.133c-11.783,4.363 -21.154,13.788 -33.837,16.183c-6.238,1.188 -1.583,6.88 -4.471,9.75c-7.308,7.271 -10.046,17.13 -13.708,26.409c-0.588,1.116 -1.175,2.233 -1.767,3.346c-1.712,2.837 -4.637,3.67 -7.529,4.562c-0.7,2.15 -2.429,2.454 -4.346,2.429c-13.612,8.45 -27.225,16.896 -40.837,25.346c-0.971,0.275 -2.7,0.954 -2.796,0.771c-0.788,-1.475 0.337,-1.842 1.537,-2.008c11.129,-17.675 21.3,-35.813 27.288,-55.988l4.921,-17.042c-0.559,-2.116 0.5,-3.583 1.966,-4.879c0.175,-1.637 0.346,-3.279 0.517,-4.916c0.883,-3.188 1.767,-6.371 2.654,-9.555c-0.058,-2.029 -1.429,-2.329 -3.042,-2.312c-26.125,15.729 -52.27,31.421 -75.591,51.279c-2.117,2.404 -4.238,4.804 -6.359,7.204c-13.9,17.063 -26.533,34.588 -29.462,57.492c-0.813,6.312 1.696,11.767 1.258,17.696c0.238,1.566 0.475,3.137 0.713,4.704c6.891,7.667 0.687,10.267 -5.059,13.046c-2.533,2.208 -19.329,16.512 -19.329,16.512c-9.787,8.988 -19.566,17.979 -29.35,26.971c-0.333,0.975 -0.521,2.492 -1.95,1.592c-0.454,-0.284 0.004,-2.013 0.046,-3.084c6.313,-10.287 9.05,-22.02 13.392,-33.104c0.237,-1.571 0.479,-3.141 0.721,-4.712c-0.355,-1.959 -0.409,-3.829 1.475,-5.15c0.35,-3.971 0.7,-7.942 1.041,-11.913c2.542,-15.4 1.017,-30.796 0,-46.2c-0.187,-4.046 -0.375,-8.091 -0.558,-12.137c-2.233,-2.946 -2.379,-6.313 -1.958,-9.792c-0.2,-1.587 -0.405,-3.179 -0.605,-4.767c-21.691,21.13 -39.72,45.28 -57.504,69.634c-7.112,9.921 -10.866,21.441 -15.566,32.512c-0.096,1.646 -0.192,3.296 -0.296,4.942c-0.584,1.629 -1.171,3.267 -1.754,4.896c-0.192,2.421 -0.38,4.85 -0.571,7.275c-1.159,18.912 -0.804,37.683 5.054,55.962c0.546,0.5 0.692,1.096 0.433,1.784c4.363,6.112 9.317,2.016 16.271,-1.6c-5.217,10.2 -10.896,16.083 -16.367,22.12c-2.062,5.6 -6.108,9.821 -9.85,14.263c-8.529,13.392 -17.058,26.783 -25.587,40.171c2.396,-16.696 1.142,-33.329 1.567,-49.892c0.254,-7.471 -4.084,-14.35 -2.825,-21.95c-3.684,-4.187 -2.13,-9.983 -4.475,-14.583c-2.855,-8.813 -5.705,-17.629 -8.559,-26.442c-3.875,-10.3 -7.758,-20.596 -12.025,-31.933c-4.062,10.037 -7.641,18.891 -11.225,27.746c-0.229,1.279 -0.454,2.562 -0.687,3.841c-4.529,13.088 -9.067,26.175 -13.6,39.263c-0.329,1.525 -0.654,3.05 -0.984,4.579c-1.712,4.108 -1.133,9.012 -4.387,12.583c-0.213,2.296 -0.413,4.6 -0.621,6.9c-0.679,1.6 -1.354,3.2 -2.033,4.804c-0.075,1.642 -0.146,3.284 -0.217,4.925c-3.558,14.434 -2.746,29.134 -2.629,43.784c0.258,2.404 0.521,4.804 0.783,7.208c1.842,1.208 2.067,2.996 1.746,4.971c0.971,3.246 1.942,6.5 2.908,9.75c7.817,12.125 11.95,26.408 22.817,36.833c4.483,4.3 -1.967,7.963 -3.283,11.967c-0.375,5.346 -2.617,10.025 -5.196,14.592c0.396,2.133 -0.746,3.566 -2.217,4.841c0.242,4.746 -2.129,8.525 -4.541,12.292c-2.563,9.421 -5.13,18.85 -7.696,28.279c-2.592,-10.8 -7.196,-20.483 -9.5,-30.808c-1.363,-2.263 -3.217,-4.354 -2.663,-7.317c-1.5,-1.275 -2.616,-2.721 -2.216,-4.862c-1.734,-4.046 -3.471,-8.092 -5.2,-12.138l-7.359,-14.55c-1.733,-2.5 -3.471,-5 -5.208,-7.5c-5.267,-6.771 -10.946,-13.267 -14.35,-21.296c-5.588,-4.791 -8.804,-11.258 -12.313,-17.512c-1.795,0.271 -2.529,-1.596 -3.254,-3.463c-1.071,-2.746 -2.141,-5.491 -6.6,-1.45c-0.375,4.154 -0.746,8.309 -1.116,12.467c-0.325,2.325 -0.655,4.65 -0.984,6.979c-0.341,12.242 1.675,24.617 -1.975,36.679c-0.225,12.142 -0.454,24.279 -0.683,36.421c-0.075,14.779 2.425,29.271 4.875,43.767c0.571,4.15 3.692,7.708 2.829,12.187c1.971,1.075 2.442,2.804 2.146,4.875c1.817,4.013 3.646,8.025 5.462,12.042c2.325,3.296 4.65,6.583 6.971,9.875c8.621,8.933 18.254,16.546 29.275,22.337c4.042,-0.591 4.888,1.534 4.421,5.009c-1.625,11.991 -3.183,23.991 -4.762,35.991c-0.013,1.642 -0.038,42.8 -0.038,42.8c-1.083,0.075 -2.171,0.155 -3.254,0.23c-2.275,-4.517 -4.546,-9.034 -6.825,-13.55c-4.067,-4.184 -7.608,-8.713 -9.196,-14.471c-3.012,-1.625 -4.067,-4.542 -5.017,-7.529l0.071,0.083c-4.233,-5.688 -8.462,-11.379 -12.696,-17.071c-6.179,-7.421 -12.354,-14.837 -18.533,-22.258c-5.55,-4.617 -11.1,-9.234 -16.65,-13.85c-11.417,-5.492 -18.837,-17.488 -32.233,-19.763c4.55,22.029 9.1,44.059 13.654,66.088c0.575,5.558 4.029,10.541 3.25,16.371c1.462,1.279 2.471,2.75 2.042,4.829c0.216,1.596 0.437,3.196 0.658,4.791c9.808,25.659 19.804,51.23 40.167,70.896c4.266,4.121 8.904,7.854 13.375,11.763c10.35,5.762 20.495,11.925 31.1,17.171c9.054,4.475 4.137,13.391 7.345,19.604c0.309,2.362 0.613,4.721 0.917,7.083c4.075,17.55 8.146,35.104 12.221,52.654c-7.558,-8.412 -16.254,-14.833 -23.154,-22.946c-5.709,-1.733 -9.634,-6.058 -14.054,-9.658c-2.955,-1.05 -6.009,-1.954 -7.609,-5.042c-3.054,-0.129 -5.241,-1.841 -7.225,-3.937c-10.9,-6.321 -21.937,-12.433 -31.758,-20.433c-1.888,-0.117 -3.692,-0.396 -4.55,-2.438c-14.842,-8.9 -29.688,-17.796 -44.529,-26.692c-0.392,0.146 -0.971,0.134 -1.55,0.121c-1.488,-0.025 -3.013,-0.054 -1.571,2.521c4.642,8.329 8.146,17.092 11.225,26.063c9.329,10.208 13.825,23.162 20.058,35.129c11.638,18.854 20.946,39.162 34.888,56.562c5.712,7.134 12.158,13.675 18.271,20.496c11.591,9.238 23.495,18.058 36.995,24.375c2.48,1.158 2.442,2.775 2.488,4.763c6.054,-4.834 9.975,2.029 14.962,2.983c6.438,1.237 12.555,4.154 18.809,6.35c3.171,0.292 6.333,0.587 9.504,0.883c1.846,-0.554 2.475,0.634 2.946,2.05c4.596,9.009 9.187,18.021 13.783,27.029c9.079,15.371 18.154,30.734 27.233,46.1c0.984,0.263 2.35,0.455 1.563,1.838c-0.217,0.383 -1.888,-0.058 -2.892,-0.117c-15.791,-13.146 -34.883,-20.654 -52.479,-30.716c-2.433,-0.959 -4.867,-1.909 -7.3,-2.863c-2.162,0.542 -3.558,-0.667 -4.85,-2.117c-2.971,0.58 -5.062,-1.283 -7.325,-2.662c-6.546,-2.271 -13.079,-4.546 -19.625,-6.821c-1.592,-0.221 -3.183,-0.442 -4.779,-0.658c-2.088,0.437 -3.563,-0.567 -4.842,-2.042c-1.637,-0.129 -3.275,-0.262 -4.912,-0.396l-4.913,-1.866c-1.612,-0.167 -3.221,-0.33 -4.833,-0.488c-1.992,0.408 -3.738,0.029 -5.079,-1.608c-1.563,-0.279 -3.117,-0.559 -4.675,-0.825l-34.188,-9.463c-0.75,9.604 9.092,12.413 12.467,19.371c2.508,3.25 5.017,6.5 7.529,9.754c3.017,1.788 5.525,4.067 6.933,7.371c1.846,2.383 6.796,8.658 7.425,9.417c2.438,2.466 26.796,26.879 36.542,36.608c4.95,4.138 9.9,8.271 14.85,12.404l19.246,14.504c11.371,5.717 22.742,11.438 34.112,17.155c1.625,0.208 3.255,0.412 4.884,0.62c13.05,2.955 26.096,5.909 39.146,8.867c5.545,-0.046 11.087,-0.087 16.625,-0.129c2.17,-2.2 4.887,-1.704 7.533,-1.542c3.258,-0.141 6.521,-0.287 9.787,-0.433c10.921,8.554 20.005,18.962 29.317,29.133c3.221,1.463 5.383,4.013 7.192,6.938c13.037,11.154 26.075,22.308 39.121,33.462c-0.292,0.546 -0.58,1.084 -0.867,1.629c-12.771,-5.741 -25.538,-11.475 -38.313,-17.22c-1.591,-0.234 -3.187,-0.467 -4.779,-0.7c-2.666,0.216 -5.233,0.025 -7.362,-1.871l-7.263,-0.525c-3.233,-0.734 -6.462,-1.463 -9.696,-2.188c-2.454,-0.066 -4.912,-0.141 -7.366,-0.212c-12.175,-1.621 -24.35,-3.242 -36.529,-4.867c-6.788,0.763 -13.45,-0.212 -20.117,-1.187c-5.488,-0.809 -10.979,-1.609 -16.538,-1.446c-12.141,-0.946 -24.287,-1.896 -36.433,-2.846c-4.692,0.312 -9.387,0.621 -16.158,1.067c6.254,4.883 11.196,8.733 16.137,12.587c7.721,5.133 15.975,9.538 22.55,16.267c5.388,2.075 10.038,5.275 14.159,9.283c23.333,14.321 47.262,27.479 72.987,37.113c9.754,2.6 19.508,5.204 29.263,7.804c14.479,2.733 29.095,4.208 43.812,4.787c2.388,-0.229 4.775,-0.454 7.167,-0.679c3.066,-1.917 6.454,-1.921 9.891,-1.671c3.238,-0.187 6.475,-0.375 9.717,-0.562c1.371,-1.325 2.838,-2.404 4.917,-1.921c1.575,-0.25 3.154,-0.508 4.733,-0.763c7.275,-2.866 14.458,-6.012 21.85,-8.533c9.2,-3.142 13.85,5.213 20.421,8.713c3.817,0.25 6.508,2.57 9.142,4.987c3.25,0.75 6.179,2.046 8.354,4.696c5.191,1.025 9.633,3.604 13.854,6.642c2.021,0.775 4.496,0.72 5.637,3.1c4.342,0.433 7.775,2.787 11.146,5.275c1.621,0.775 3.242,1.55 4.867,2.32c3.912,0.505 7.571,1.621 10.517,4.421c5.541,1.975 11.087,3.95 18.037,6.434c-8.275,2.841 -14.7,-0.142 -21.221,-1.321l-22.008,-0.221c-5.829,0.462 -11.688,0.458 -17.546,0.454c-9.604,-0.004 -19.208,-0.008 -28.7,2.021c-4.017,0.258 -8.033,0.512 -12.046,0.771c-1.671,0.516 -3.341,1.037 -5.012,1.554c-3.242,0.225 -6.479,0.45 -9.725,0.679c-15.446,3.017 -30.9,6.042 -46.35,9.063c-3.184,0.329 -6.371,0.662 -9.55,0.995c-1.342,1.667 -3.142,1.846 -5.084,1.542c-2.425,0.188 -4.854,0.375 -7.283,0.563c-2.1,1.979 -4.617,2.354 -7.35,1.916c-1.646,0.046 -3.292,0.092 -4.942,0.142c-5.9,3.021 -12.366,2.604 -18.687,3.083c0.046,8.367 8.417,3.55 11.437,7.2c16.005,4.55 32.013,9.096 48.025,13.642c4.309,1.133 8.617,2.275 12.925,3.412c2.038,-0.412 3.767,0 4.959,1.855c1.6,0.191 3.196,0.387 4.796,0.583c1.991,-0.408 3.733,-0.029 5.075,1.612l4.679,0.821c1.95,-0.358 3.816,-0.396 5.146,1.454c3.162,0.355 6.325,0.709 9.487,1.063c1.938,-0.308 3.725,-0.121 5.079,1.512c3.184,0.305 6.367,0.617 9.55,0.925c9.342,2.038 18.796,2.034 28.25,2.025c5.188,-0.004 10.384,-0.008 15.559,0.325c7.241,-0.266 14.487,-0.541 21.729,-0.808c2.162,-2.162 4.866,-1.762 7.525,-1.587c2.454,-0.08 4.912,-0.163 7.366,-0.242c3.43,-3.158 7.892,-2.338 11.946,-3.104c19.721,-5.792 37.813,-14.784 52.738,-29.009c6.096,-5.82 10.612,-2.1 15.85,0.159c1.604,0.221 3.208,0.429 4.812,0.646c1.613,0.675 3.221,1.354 4.829,2.033c1.638,0.133 3.28,0.267 4.925,0.396c1.646,0.591 3.292,1.171 4.938,1.758c1.6,0.179 3.204,0.354 4.808,0.529c14.896,2.742 29.792,5.475 46.629,8.571c-14.858,4.521 -28.304,8.621 -41.754,12.713c-0.675,0.329 -1.391,0.47 -2.141,0.416c-10.005,8.604 -22.692,11.679 -34.421,16.734c-4.054,1.729 -8.113,3.458 -12.167,5.191c-1.092,1.954 -2.871,2.367 -4.912,2.217l-0.559,0.6l-0.796,-0.213c-1.166,0.642 -2.329,1.296 -3.491,1.942l-12.192,5.2c-19.592,9.896 -39.187,19.792 -58.817,29.708c0.534,1.984 2.175,1.921 3.796,1.859c1.763,-0.063 3.509,-0.129 3.775,2.433l14.634,0c0.762,-0.75 1.533,-2.154 2.291,-2.15c25.313,0.163 50.379,-3.358 75.588,-4.767c8.091,-1.108 16.183,-2.22 24.275,-3.325c13.887,-3.787 27.775,-7.575 41.658,-11.362c0.717,-0.4 1.488,-0.521 2.296,-0.371c1.158,-1.904 2.883,-2.508 5.017,-2.171c2.612,-2.487 6.016,-2.891 9.333,-3.516c6.667,-3.059 13.333,-6.121 20,-9.192c9.733,-8.013 19.458,-16.033 29.192,-24.046l7.179,-7.45c1.883,-4.712 5.846,-4.758 10.012,-4.537c5.238,0.279 10.763,1.575 15.675,0.391c17.713,-4.283 29.884,3.909 40.55,16.384c3.059,1.654 5.504,3.925 7.184,6.991c21.77,18.979 49.279,25.313 75.612,34.217c1.596,0.229 3.183,0.458 4.771,0.692c2.083,-0.446 3.558,0.562 4.837,2.029c1.638,0.137 3.284,0.266 4.917,0.404c1.971,-0.325 3.758,-0.108 4.971,1.737c1.6,0.205 3.208,0.413 4.808,0.617c1.704,-0.392 2.288,0.688 2.692,2.021c2.333,0.1 4.675,0.2 7.012,0.296c26.425,1.712 52.842,3.408 79.263,5.204c0.429,0.033 0.787,1.242 1.179,1.904l31.696,0c-0.029,-1.529 -0.058,-3.058 -0.088,-4.583c-24.929,-14.509 -53.579,-21.238 -77.854,-37.117c-9.787,-4.862 -19.575,-9.717 -29.362,-14.579c-2.175,-0.867 -10.309,-4.158 -12.196,-4.933c-2.404,-0.834 -21.913,-7.334 -29.254,-9.742c-9.342,-2.9 -19.3,-3.783 -28.317,-8.429c11.254,-1.817 22.217,-3.592 33.175,-5.363c2.371,-0.337 4.738,-0.675 7.108,-1.012c1.346,-1.663 3.121,-1.946 5.092,-1.579c1.613,-0.175 3.225,-0.342 4.829,-0.521c1.642,-0.584 3.279,-1.171 4.913,-1.763c2.35,-0.379 4.7,-0.766 7.05,-1.15c5.596,-1.812 11.275,-3.408 16.771,-5.483c5.487,-2.067 9.17,-1.796 13.116,3.775c3.496,4.937 9.467,8.125 14.346,12.083c3.213,0.6 6.033,1.863 7.942,4.679c2.929,-0.675 4.583,1.617 6.683,2.871c2.129,-0.387 3.558,0.754 4.842,2.213c3.112,-0.813 4.912,1.887 7.391,2.754c1.655,-0.358 2.717,0.396 3.417,1.825l0.821,-0.2l0.579,0.617c1.904,-0.038 3.938,-0.5 5.238,1.533c1.508,0.362 3.025,0.733 4.537,1.1c2.033,-0.421 3.75,0.017 4.971,1.825l7.225,0.646c2.725,-0.488 5.2,0.075 7.437,1.712c2.388,0.154 4.775,0.313 7.163,0.467c12.171,0.083 24.346,0.167 36.517,0.254c7.304,-0.171 14.604,-0.346 21.908,-0.517c2.937,-2.32 6.379,-2.025 9.787,-1.87c1.642,-0.1 3.292,-0.192 4.934,-0.288c4.229,-3.271 9.516,-2.275 14.25,-3.517c26.116,-7.637 52.233,-15.275 78.35,-22.908c3.391,-1.637 8.758,-1.446 7.166,-7.708c-11.329,-2.492 -23.05,-3.125 -34.033,-7.242c-2.421,-0.187 -4.85,-0.375 -7.279,-0.562c-1.971,0.32 -3.75,0.1 -4.954,-1.742l-7.229,-0.646c-17.959,-2.962 -35.913,-5.921 -53.871,-8.879c-3.984,-0.279 -7.967,-0.567 -11.95,-0.85c-3.534,0.696 -6.917,0.646 -9.742,-2.046l-7.321,-0.35c-26.958,-0.804 -53.812,-0.158 -80.604,5.325c41.408,-17.025 80.713,-37.508 120.05,-62.85c-2.246,6.792 -4.842,11.758 -0.237,16.079c2.891,-0.191 5.045,1.359 7.166,3c1.642,0.684 3.284,1.363 4.925,2.046c1.613,0.188 3.229,0.379 4.842,0.567c2.083,-0.438 3.558,0.566 4.837,2.033c2.45,0.121 4.9,0.242 7.35,0.358c13.717,2.238 27.559,2.142 41.392,2.3c2.363,-0.241 4.721,-0.475 7.083,-0.716c1.346,-1.675 3.146,-1.85 5.088,-1.542c2.371,-0.296 4.737,-0.6 7.104,-0.896c1.346,-1.658 3.117,-1.937 5.092,-1.583c4.091,-0.825 8.175,-1.646 12.258,-2.475c12.125,-4.35 24.242,-8.696 36.367,-13.042c0.716,-2.25 2.6,-2.066 4.379,-2.096c10.612,-5.862 21.225,-11.716 31.833,-17.579l-0.158,0.175c2.65,-1.5 5.3,-3 7.954,-4.496c0.642,-2.158 2.363,-2.462 4.263,-2.462c1.833,-2.908 4.891,-3.883 7.891,-4.95c5.717,-3.779 30.084,-19.846 36.546,-24.104c2.438,-1.729 4.879,-3.454 7.317,-5.179c3.971,-5.646 0.1,-6.509 -4.254,-6.688c-5.846,-0.237 -11.705,-0.171 -17.559,-0.233c-16.833,4.075 -34.196,2.129 -51.183,4.446c-5.692,0.141 -11.388,0.287 -17.079,0.429c-17.875,3.066 -35.746,6.133 -53.613,9.2c-2.412,0.258 -4.821,0.516 -7.229,0.779c-1.196,1.879 -2.962,2.187 -4.979,1.808l-9.829,2.688c-12.554,5.241 -25.117,10.487 -37.679,15.733c-0.271,-0.642 -0.542,-1.279 -0.821,-1.925c11.15,-8.854 22.296,-17.712 33.441,-26.567c4.859,-4.679 9.705,-9.358 14.559,-14.037c6.629,-6.646 13.266,-13.296 19.9,-19.942c3.791,-3.975 7.583,-7.941 11.371,-11.912c3.754,-8.634 7.025,-1.342 10.462,0.316c1.629,0.134 11.467,0.846 14.758,1.071c14.755,-0.508 29.334,-2.379 43.734,-5.65c3.95,-1.325 7.625,-3.733 12.087,-3.037c5.725,-2.3 11.459,-4.6 17.192,-6.904l0.558,-0.6l0.8,0.212c1.163,-0.646 2.325,-1.296 3.492,-1.942c9.175,-5.962 18.35,-11.916 27.525,-17.879c5.271,-3.746 10.542,-7.5 15.812,-11.246c6.605,-5.82 13.209,-11.645 19.809,-17.466l13.646,-15.113c7.058,-10.016 13.95,-20.171 22.816,-28.754c2.904,-5.408 7.738,-8.887 12.475,-12.462c0.738,-0.717 1.475,-1.438 2.209,-2.155c1.679,-2.933 4.62,-4.029 7.537,-5.15c1.421,-2.883 1.088,-5.195 -2.142,-6.57c-2.479,0.525 -12.295,2.237 -12.295,2.237c-14.188,5.583 -29.23,7.95 -43.917,11.658c-1.596,0.217 -3.188,0.43 -4.775,0.646c-1.221,1.817 -2.967,2.167 -4.979,1.792c-6.3,1.404 -11.779,5.571 -18.513,5.533c-0.712,1.421 -1.771,2.192 -3.433,1.813c-11.35,5.071 -22.7,10.146 -34.046,15.212c-15.862,10.329 -31.721,20.659 -47.583,30.984c-1.25,0.783 -1.929,4.083 -3.888,1.641c-1.312,-1.646 0.579,-3.133 2.346,-3.879c11.379,-18.812 22.763,-37.629 34.142,-56.442c2.15,-6.983 5.321,-13.445 9.762,-19.279c0.542,-6.654 2.946,-7.487 10.35,-7.5c18.229,-0.025 34.325,-9.208 50.417,-17.112c5.708,-2.804 11.225,-5.979 16.825,-8.979c0.954,-0.863 7.742,-6.242 10.183,-8.067l4.788,-4.296l19.516,-20.462c0.292,-3.738 3.075,-6 5.163,-8.675c0.746,-1.038 1.487,-2.067 2.233,-3.109c0,-1.879 0.3,-3.591 2.438,-4.254c16.129,-29.812 32.254,-59.621 48.383,-89.437c0.896,-3.313 1.792,-6.621 3.083,-11.396c-7.133,3.233 -13.025,5.896 -18.912,8.558c-26.154,16.204 -52.304,32.404 -78.463,48.608c-1.758,2.73 -4.433,4.142 -7.4,5.138c-1.383,3 -3.875,4.554 -6.975,5.321c-8.712,9.337 -18.329,17.837 -27.937,27.454c3.108,-11.646 6.217,-23.292 9.321,-34.938l6.287,-32.358c-0.041,-0.404 -0.075,-0.808 -0.121,-1.208c-2.241,-20.079 16.113,-18.554 26.592,-25.292c7.221,-4.337 14.442,-8.667 21.667,-13.008c4.937,-4.809 9.871,-9.621 14.816,-14.434c0.63,-0.754 5.555,-7.095 7.384,-9.516c2.1,-3.279 4.196,-6.571 6.291,-9.859c13.838,-23.416 20.896,-49.325 27.73,-75.312c0.037,-10.85 3.7,-21.079 5.441,-31.633c1.075,-11.346 7.188,-21.78 6.679,-34.134c-7.166,1.842 -11.366,6.984 -16.712,10.2c-3.317,4.763 -7.521,8.6 -12.329,11.796c-3.388,4.033 -7.067,7.738 -11.779,10.267c-7.117,7.441 -27.267,28.533 -27.267,28.533c-1.329,3.396 -3.775,5.796 -6.85,7.621c-3.996,4.925 -7.988,9.85 -11.979,14.775c-0.484,1.829 -0.563,3.904 -2.825,4.654c-1.2,2.771 -2.059,5.767 -4.888,7.467c-3.679,8.016 -7.366,16.033 -11.054,24.041c-0.908,-0.062 -1.817,-0.129 -2.729,-0.191l-0,-24.038c-0.063,-1.654 -0.5,-13.037 -0.65,-17.071c-0.038,-3.266 -0.075,-6.537 -0.108,-9.804c-1.784,-13.462 -3.567,-26.925 -5.434,-41c11.25,5.196 16.567,-5.121 24.55,-7.875c9.067,-9.191 18.104,-18.4 24.117,-30.029c-0.367,-0.65 -0.213,-1.137 0.462,-1.462c-0.15,-2.034 0.255,-3.817 2.213,-4.9c1.771,-6.492 3.542,-12.988 5.308,-19.484c-0.304,-1.946 -0.912,-3.979 1.521,-5.104c0.333,-3.175 0.667,-6.346 1,-9.521l1.188,-5.233c0.387,-7.183 0.779,-14.367 1.166,-21.546c-0.166,-12.179 -0.337,-24.354 -0.512,-36.529c-0.217,-1.475 -0.438,-2.95 -0.654,-4.421c-3.159,-11.25 -0.384,-22.925 -2.467,-34.25c-3.4,-6.512 -0.263,-13.958 -3.029,-22.425c-6.525,8.967 -12.221,16.8 -17.913,24.629c-4.691,7.542 -8.354,15.754 -14.637,22.254c-1.159,5.592 -5.334,9.505 -7.946,14.288c-8.746,17.271 -20.408,33.342 -22.058,53.537c-0.388,10.559 -0.784,21.121 -1.18,31.68c3.234,4.6 2.53,9.366 0.396,15.491c-1.287,-5.979 -2.329,-10.787 -3.362,-15.596c-1.709,-16.837 -10.034,-31.9 -13.009,-48.4c-1.983,-3.925 -4.283,-7.737 -4.27,-12.35c-1.963,-1.087 -2.367,-2.87 -2.217,-4.908c-2.05,-2.021 -3.033,-4.417 -2.558,-7.321c-1.48,-1.279 -2.609,-2.712 -2.217,-4.85c-1.375,-2.262 -3.246,-4.35 -2.663,-7.329c-2.687,-3.546 -4.766,-7.35 -5.183,-11.883c-2.183,-0.85 -3.262,-3.138 -1.737,-4.325c2.345,-1.834 2.17,1.862 3.512,2.641c8.617,9.259 12.329,-0.858 15.283,-5.087c10.038,-14.358 16.046,-30.7 19.871,-47.808c0.509,-2.28 1.471,-4.455 2.221,-6.684l-0.325,-19.166c-1.737,-1.338 -1.579,-3.205 -1.429,-5.071c-0.171,-2.459 -0.338,-4.904 -0.508,-7.359c-8.021,-25.97 -16.042,-51.941 -24.067,-77.908c-0.396,-0.729 -0.521,-1.496 -0.367,-2.312c-1.891,-1.15 -2.5,-2.867 -2.166,-4.988c-4.492,-4.012 -1.355,-13.075 -9.663,-14.558c-4.058,7.321 -8.117,14.646 -12.167,21.971c-0.75,5.225 -2.862,9.941 -5.433,14.487c-1.462,4.092 -2.925,8.188 -4.387,12.279c-0.205,1.592 -0.413,3.192 -0.621,4.788c-4.129,13.566 -0.596,27.904 -4.159,41.529c0,9.633 0,19.267 -0.004,28.9c3.179,6.754 1.775,13.925 2.325,23.65c-4.479,-8.404 -7.771,-14.579 -11.058,-20.746c-3.088,-4.871 -6.175,-9.737 -9.263,-14.604c-3.875,-5.788 -7.75,-11.571 -11.629,-17.358c-1.65,-2.342 -11.662,-15.971 -12.279,-16.763c-7.604,-9.437 -15.208,-18.871 -24.458,-30.35c12.737,3.125 16.916,17.104 29.15,15.129c8.162,-16.916 7.683,-35.137 8.012,-53.237c-0.262,-4.821 -0.521,-9.642 -0.787,-14.471c-0.513,-1.663 -1.034,-3.333 -1.554,-5l-0.517,-4.917c-4.825,-12.612 -10.417,-24.858 -17.404,-36.437c-3.034,-1.413 -4.346,-4.059 -5.109,-7.1c0,-0 -25.495,-31.192 -26.229,-32.054c-2.754,-1.625 -4.408,-4.121 -5.562,-7.013c-0.638,-0.758 -1.267,-1.508 -1.896,-2.267c-6.05,-5.8 -12.104,-11.6 -19.7,-18.879l-0,30.638c0.225,8.887 0.458,17.771 0.687,26.654c3.375,17.767 0.934,36.25 6.63,53.729c0.933,2.442 1.862,4.883 2.795,7.325c4.138,8.625 10.438,16.3 11.917,26.267c-8.642,-10.742 -19.6,-18.85 -28.733,-28.771c-4.313,-2.229 -7.509,-5.679 -10.35,-9.508c-1.654,-1.634 -6.467,-6.163 -7.221,-6.788c-1.529,-1.096 -3.067,-2.187 -4.596,-3.279c-0.392,-0.083 -0.858,-0.067 -1.167,-0.279c-10.529,-7.338 -21.97,-14.429 -8.433,-28.8c0.25,-13.213 -0.7,-26.271 -4.875,-38.925c-0.558,-0.513 -0.7,-1.113 -0.425,-1.817c-2.833,-1.879 -3.937,-4.846 -4.967,-7.862c-2.854,-1.35 -3.5,-4.271 -4.795,-6.734c-6.167,-4.829 -10.392,-11.291 -14.809,-17.591c-4.841,-4.555 -20.654,-19.055 -21.508,-19.788c-7.446,-5.583 -14.896,-11.171 -22.342,-16.758c-4.825,-3.084 -9.646,-6.167 -14.471,-9.242c-7.55,-2.262 -13.216,-8.712 -21.354,-9.725c-2.087,6.592 1.267,12.571 1.729,18.821c1.234,3.996 3.746,7.708 2.755,12.208c3.3,3.384 2.987,8.109 4.52,12.15c0.646,3.338 3.696,5.992 2.796,9.775c6.959,16.667 17.067,31.334 28.796,44.95c0.788,1.263 4.104,1.917 1.696,3.884c-1.638,1.329 -3.133,-0.559 -3.871,-2.33c-17.083,-8.604 -34.187,-17.158 -51.217,-25.862c-2.716,-1.388 -6.745,-1.967 -7.004,-5.858c-1.421,-21.484 -15.591,-35.092 -29.741,-48.759c-0.784,-0.504 -1.567,-1 -2.346,-1.5c-11.604,-7.037 -23.975,-12.483 -36.517,-17.587l-12.021,-3.275l-1.183,0.254l-1.079,-0.529c-4.934,-1.525 -9.863,-3.042 -14.796,-4.567c-2.196,0.475 -3.992,-0.137 -5.321,-1.992l-1.029,0.155l-0.917,-0.496c-9.112,-1.717 -18.271,-3.242 -26.808,-7.125l-7.317,-0Zm490.059,640.283c0.02,-0.637 0.791,-1.25 1.245,-1.912c2.188,2.083 2.025,5.425 0.196,6.125c-0.162,0.062 -0.308,0.091 -0.437,0.091c-1.275,0 -1.059,-2.8 -1.004,-4.304Zm-194.496,400.354c-0,0 0.204,0.109 0.321,0.175c-0.084,0.096 -0.167,0.192 -0.25,0.288l-0.071,-0.463Zm-768.867,-877.696c-0.012,0.03 -0.025,0.063 -0.033,0.096l0.154,-0.162c-0.042,0.021 -0.083,0.041 -0.121,0.066Zm800.525,92.463c-0.004,-0.013 -0.008,-0.021 -0.017,-0.033c-0.041,-0.038 -0.087,-0.08 -0.133,-0.121l0.15,0.154Zm50.417,4.908c-0.017,0.042 -0.038,0.084 -0.059,0.125l0.142,-0.137c-0.029,0.004 -0.054,0.008 -0.083,0.012Zm-958.138,78.034c-0.012,0.025 -0.029,0.05 -0.046,0.075l0.125,-0.1c-0.025,0.008 -0.05,0.016 -0.079,0.025Zm-7.366,4.883c-0.005,0.012 -0.013,0.029 -0.021,0.042l0.079,-0.071c-0.021,0.012 -0.038,0.021 -0.058,0.029Zm995.758,31.342c-0.004,-0.009 -0.004,-0.013 -0.008,-0.021c-0.046,-0.042 -0.092,-0.088 -0.142,-0.129l0.15,0.15Zm-1151.71,22.558c-0,-0 0.05,0.079 0.066,0.108l-0.066,-0.108Zm1302.54,151.454c0.004,-0.004 0.008,-0.008 0.013,-0.008c0.045,-0.046 0.087,-0.092 0.133,-0.138l-0.146,0.146Zm-21.367,22.35c0.005,-0.008 0.013,-0.017 0.021,-0.021c-0.216,-0.204 -0.433,-0.404 -0.65,-0.608c0.213,0.212 0.421,0.421 0.629,0.629Zm-32.491,40.729c0.021,-0.012 0.041,-0.025 0.062,-0.037c0.013,-0.029 0.025,-0.059 0.038,-0.088l-0.1,0.125Zm-1275.07,82.338c-0.029,-0.025 -0.058,-0.05 -0.083,-0.075l-0.005,-0l0.088,0.075Zm95.021,0.5c0.029,-0.017 0.058,-0.034 0.087,-0.05c0.009,-0.029 0.021,-0.054 0.029,-0.079l-0.116,0.129Zm1123.56,36.508c0.025,0.017 0.05,0.033 0.079,0.05l-0.096,-0.171c0.005,0.042 0.013,0.079 0.017,0.121Zm61.321,29.138c0.029,-0.017 0.058,-0.038 0.087,-0.055c0.005,-0.004 0.005,-0.008 0.009,-0.008l-0.096,0.063Zm-1301.89,153.166c-0.004,-0.008 -0.008,-0.021 -0.012,-0.029c-0.021,-0.025 -0.042,-0.054 -0.063,-0.079l0.075,0.108Zm1036.18,80.721c0.025,-0.029 0.05,-0.054 0.079,-0.083c-0,-0.004 -0,-0.009 0.004,-0.013l-0.083,0.096Zm-210.075,174.871c-0.013,0.017 -0.021,0.029 -0.034,0.042l0.075,-0.071c-0.012,0.008 -0.029,0.021 -0.041,0.029Z" style="fill:url(#_Linear4);fill-rule:nonzero;"/><path d="M1495.6,1027.92c0.433,30.608 8.554,58.117 31.604,79.813c1.846,1.737 2.271,4.995 3.358,7.55c-2.858,-0.913 -6.579,-0.975 -8.441,-2.867c-28.171,-28.621 -40.988,-62.875 -31.988,-102.463c8.296,-36.525 42.004,-61.716 81.646,-54.95c18.825,3.213 30.025,18.175 39.775,33.209c7.917,12.208 8.508,13.066 22.429,10.433c1.463,-0.279 4.459,0.579 4.517,1.129c0.183,1.867 0.021,4.629 -1.188,5.625c-5.604,4.621 -12.35,7.075 -18.304,1.6c-6.921,-6.362 -13.829,-13.216 -18.866,-21.071c-27.717,-43.187 -80.425,-23.391 -96.067,8.555c-4.996,10.204 -7.213,21.77 -10.7,32.716c0.742,0.238 1.483,0.479 2.225,0.721" style="fill:#3f7a3f;fill-rule:nonzero;"/><path d="M1473.96,1034.54c0.233,-27.204 6.367,-52.129 25.462,-72.966c32.35,-35.292 85.65,-33.434 115.017,4.208c5.829,7.471 10.542,17.108 22.488,16.887c1.045,-0.02 3.045,1.963 2.979,2.905c-0.109,1.537 -1.529,4.237 -2.434,4.254c-4.383,0.071 -9.537,0.704 -12.979,-1.309c-4.562,-2.675 -8.829,-7.037 -11.425,-11.687c-24.216,-43.396 -85.65,-44.896 -114.425,-2.45c-13.312,19.646 -19.225,42.762 -16.5,66.787c1.467,12.955 5.767,25.575 8.542,38.396c0.504,2.325 -0.163,4.904 -0.296,7.363c-2.071,-1.65 -5.4,-2.929 -6.012,-5.013c-4.559,-15.487 -8.58,-31.137 -12.763,-46.729c0.779,-0.217 1.563,-0.433 2.346,-0.646" style="fill:#3f7a3f;fill-rule:nonzero;"/><path d="M1553.16,1120.38c-3.416,-1.471 -7.35,-2.288 -10.171,-4.513c-31.516,-24.82 -43.662,-57.541 -38.133,-96.887c4.733,-33.696 28.1,-51.871 61.854,-48.75c12.667,1.171 21.159,8.954 28.296,18.587c5.296,7.155 10.317,14.521 15.533,21.742c5.409,7.488 11.784,9.038 19.809,3.658c2.062,-1.383 5.262,-1.058 7.941,-1.516c-1.308,3.025 -1.8,7.071 -4.075,8.891c-8.054,6.45 -18.487,5.213 -26.37,-3.433c-5.971,-6.554 -10.03,-14.95 -16.363,-21.042c-7.333,-7.058 -15.504,-14.008 -24.587,-18.329c-19.063,-9.079 -49.709,11.134 -53.646,33.638c-6.759,38.566 1.812,71.95 33.487,97.316c2.754,2.205 5.496,4.421 8.246,6.634c-0.604,1.333 -1.212,2.671 -1.821,4.004" style="fill:#3f7a3f;fill-rule:nonzero;"/><path d="M1517.59,1039.05c-0.671,-19.421 3.025,-37.825 21.404,-47.63c17.567,-9.37 36.488,-7.445 48.042,9.775c5.637,8.4 11.842,16.438 18.104,24.396c7.729,9.829 12.267,10.254 22.579,3.867c2.825,-1.75 6.654,-1.888 10.025,-2.767c-1.954,3.388 -3.129,7.796 -6,9.971c-10.104,7.683 -20.508,6.5 -29.412,-3.517c-7.309,-8.225 -13.442,-17.483 -20.509,-25.933c-8.279,-9.9 -18.416,-17.733 -31.904,-12.387c-13.079,5.179 -23.287,14.97 -24.537,29.779c-2.967,35.158 10.112,63.471 38.837,84.258c1.492,1.079 3.546,1.621 4.6,2.983c1.092,1.417 1.284,3.525 1.867,5.334c-1.9,0.141 -4.217,1.041 -5.625,0.275c-4.292,-2.334 -8.488,-4.996 -12.263,-8.092c-20.62,-16.917 -33.945,-43.737 -35.208,-70.312" style="fill:#3f7a3f;fill-rule:nonzero;"/><path d="M1540.42,1034.3c2.988,31.533 14.225,56.533 41.879,71.983c1.967,1.1 3.063,3.78 4.563,5.725c-2.7,0.125 -5.867,1.242 -8.029,0.23c-18.25,-8.555 -30.017,-23.6 -37.08,-41.713c-4.812,-12.354 -8.483,-25.762 -9.308,-38.912c-1.033,-16.442 7.542,-26.084 21.163,-29.121c12.425,-2.775 24.475,4.554 32.316,17.721c5.413,9.083 12.188,17.47 19.163,25.466c5.416,6.221 12.483,5.229 19.191,1.342c1.325,-0.767 2.575,-2.217 3.921,-2.296c2.392,-0.133 4.825,0.538 7.238,0.871c-0.904,2.05 -1.238,5.1 -2.8,5.979c-10.013,5.663 -24.579,9.683 -35.529,-1.837c-5.45,-5.734 -9.596,-12.709 -14.384,-19.084c-3.862,-5.15 -7.412,-10.612 -11.791,-15.287c-9.946,-10.621 -23.117,-7.884 -28.009,5.821c-1.625,4.537 -1.862,9.575 -2.504,13.112" style="fill:#3f7a3f;fill-rule:nonzero;"/><path d="M1466.14,1004.27c-0,-2.504 -0.434,-5.1 0.066,-7.5c5.904,-28.109 30.213,-68.342 67.388,-77.559c26.529,-6.579 50.5,-1.883 71.254,16.538c9.604,8.525 19.283,16.962 28.679,25.708c1.396,1.296 1.429,4.054 2.092,6.138c-2.496,0.116 -5.959,1.35 -7.334,0.162c-7.845,-6.787 -15.479,-13.883 -22.658,-21.375c-15.879,-16.546 -34.867,-24.825 -57.875,-22.408c-31.975,3.358 -51.808,23.054 -65.479,50.237c-4.958,9.863 -8.55,20.417 -12.758,30.65c-1.125,-0.195 -2.25,-0.395 -3.375,-0.591" style="fill:#3f7a3f;fill-rule:nonzero;"/><path d="M1554.15,1035.34c5.796,26.692 16.846,48.179 39.846,61.979c1.571,0.942 3.608,1.279 4.9,2.467c1.133,1.041 1.525,2.887 2.241,4.379c-1.554,0.612 -3.508,2.146 -4.591,1.671c-4.746,-2.075 -9.771,-4.075 -13.729,-7.292c-19.38,-15.742 -31.888,-35.762 -34.167,-60.95c-0.454,-4.954 2.162,-11.612 5.696,-15.154c5.121,-5.138 12,-1.879 16.662,2.171c5.025,4.358 8.975,10.004 13.163,15.271c3.241,4.087 5.912,8.637 9.216,12.67c10.142,12.384 14.496,13.38 29.546,8.096c2.154,-0.758 4.875,0.088 7.338,0.192c-1.65,2.158 -2.838,5.196 -5.017,6.325c-14.608,7.587 -29.767,2.804 -41.617,-12.95c-5.354,-7.121 -10.054,-14.758 -15.729,-21.6c-1.975,-2.383 -6.083,-4.3 -9.041,-4.075c-1.842,0.137 -3.35,4.687 -4.717,6.8" style="fill:#3f7a3f;fill-rule:nonzero;"/><path d="M1553.23,898.955c31.175,0.891 55.737,13.379 74.441,37.441c1.317,1.688 2.692,3.504 3.325,5.484c0.559,1.741 0.113,3.804 0.113,5.725c-1.8,-0.663 -4.117,-0.834 -5.309,-2.08c-3.387,-3.541 -6.095,-7.729 -9.458,-11.3c-39.625,-42.108 -104.137,-35.991 -135.204,12.759c-0.658,1.033 -1.025,2.404 -1.925,3.112c-2.292,1.821 -4.817,3.363 -7.25,5.013c0.45,-3.038 0.017,-6.604 1.475,-9.034c18.217,-30.312 45.167,-45.866 79.792,-47.12" style="fill:#3f7a3f;fill-rule:nonzero;"/><path d="M1591.86,896.17c-2.479,-0 -5.233,0.716 -7.391,-0.117c-14.304,-5.513 -28.984,-8.538 -44.109,-5.2c-8.879,1.958 -17.333,5.796 -26.079,8.429c-2.104,0.633 -4.633,-0.15 -6.966,-0.279c1.137,-1.888 1.816,-4.633 3.491,-5.542c25.059,-13.687 50.829,-14.325 77.009,-3.45c1.745,0.725 3.016,2.592 4.504,3.929c-0.154,0.742 -0.304,1.488 -0.459,2.23" style="fill:#3f7a3f;fill-rule:nonzero;"/><path d="M1616.12,1091.49c-6.062,-1.808 -12.55,-2.775 -18.108,-5.583c-14.442,-7.313 -23.842,-19.746 -31.071,-33.85c-0.987,-1.934 -0.046,-4.85 -0.004,-7.313c2.246,1.442 5.071,2.425 6.625,4.409c5.804,7.4 10.3,16.066 17.012,22.429c5.5,5.216 13.467,7.833 20.338,11.604c2.342,1.283 4.675,2.583 7.017,3.875c-0.605,1.475 -1.205,2.954 -1.809,4.429" style="fill:#3f7a3f;fill-rule:nonzero;"/><path d="M891.431,1027.92c0.429,30.608 8.55,58.117 31.6,79.813c1.85,1.737 2.275,4.995 3.363,7.55c-2.859,-0.913 -6.579,-0.975 -8.442,-2.867c-28.171,-28.621 -40.987,-62.875 -31.992,-102.463c8.296,-36.525 42.005,-61.716 81.65,-54.95c18.825,3.213 30.021,18.175 39.775,33.209c7.917,12.208 8.509,13.066 22.425,10.433c1.463,-0.279 4.463,0.579 4.517,1.129c0.183,1.867 0.021,4.629 -1.183,5.625c-5.604,4.621 -12.354,7.075 -18.304,1.6c-6.921,-6.362 -13.834,-13.216 -18.871,-21.071c-27.713,-43.187 -80.421,-23.391 -96.063,8.555c-5,10.204 -7.216,21.77 -10.704,32.716c0.742,0.238 1.483,0.479 2.229,0.721" style="fill:#fff;fill-rule:nonzero;"/><path d="M869.793,1034.54c0.233,-27.204 6.366,-52.129 25.466,-72.966c32.35,-35.292 85.646,-33.434 115.017,4.208c5.825,7.471 10.542,17.108 22.487,16.887c1.042,-0.02 3.042,1.963 2.975,2.905c-0.108,1.537 -1.529,4.237 -2.429,4.254c-4.387,0.071 -9.537,0.704 -12.983,-1.309c-4.558,-2.675 -8.829,-7.037 -11.421,-11.687c-24.221,-43.396 -85.654,-44.896 -114.429,-2.45c-13.313,19.646 -19.225,42.762 -16.5,66.787c1.467,12.955 5.767,25.575 8.546,38.396c0.5,2.325 -0.167,4.904 -0.296,7.363c-2.071,-1.65 -5.404,-2.929 -6.017,-5.013c-4.554,-15.487 -8.575,-31.137 -12.762,-46.729c0.783,-0.217 1.566,-0.433 2.346,-0.646" style="fill:#fff;fill-rule:nonzero;"/><path d="M948.99,1120.38c-3.417,-1.471 -7.35,-2.288 -10.175,-4.513c-31.509,-24.82 -43.659,-57.541 -38.13,-96.887c4.734,-33.696 28.105,-51.871 61.855,-48.75c12.666,1.171 21.162,8.954 28.291,18.587c5.304,7.155 10.321,14.521 15.538,21.742c5.408,7.488 11.783,9.038 19.808,3.658c2.063,-1.383 5.263,-1.058 7.942,-1.516c-1.309,3.025 -1.8,7.071 -4.071,8.891c-8.058,6.45 -18.496,5.213 -26.371,-3.433c-5.971,-6.554 -10.033,-14.95 -16.367,-21.042c-7.333,-7.058 -15.508,-14.008 -24.587,-18.329c-19.063,-9.079 -49.704,11.134 -53.65,33.638c-6.754,38.566 1.817,71.95 33.492,97.316c2.754,2.205 5.5,4.421 8.245,6.634c-0.604,1.333 -1.212,2.671 -1.82,4.004" style="fill:#fff;fill-rule:nonzero;"/><path d="M913.42,1039.05c-0.675,-19.421 3.021,-37.825 21.4,-47.63c17.567,-9.37 36.488,-7.445 48.046,9.775c5.638,8.4 11.838,16.438 18.1,24.396c7.734,9.829 12.271,10.254 22.579,3.867c2.83,-1.75 6.659,-1.888 10.025,-2.767c-1.95,3.388 -3.129,7.796 -5.995,9.971c-10.109,7.683 -20.513,6.5 -29.417,-3.517c-7.308,-8.225 -13.438,-17.483 -20.504,-25.933c-8.284,-9.9 -18.417,-17.733 -31.909,-12.387c-13.075,5.179 -23.287,14.97 -24.533,29.779c-2.971,35.158 10.113,63.471 38.838,84.258c1.487,1.079 3.545,1.621 4.595,2.983c1.092,1.417 1.284,3.525 1.871,5.334c-1.904,0.141 -4.221,1.041 -5.625,0.275c-4.291,-2.334 -8.491,-4.996 -12.262,-8.092c-20.625,-16.917 -33.95,-43.737 -35.209,-70.312" style="fill:#fff;fill-rule:nonzero;"/><path d="M936.253,1034.3c2.988,31.533 14.225,56.533 41.88,71.983c1.97,1.1 3.062,3.78 4.562,5.725c-2.7,0.125 -5.862,1.242 -8.029,0.23c-18.254,-8.555 -30.017,-23.6 -37.079,-41.713c-4.813,-12.354 -8.484,-25.762 -9.309,-38.912c-1.033,-16.442 7.542,-26.084 21.163,-29.121c12.425,-2.775 24.475,4.554 32.317,17.721c5.412,9.083 12.187,17.47 19.158,25.466c5.425,6.221 12.487,5.229 19.192,1.342c1.329,-0.767 2.579,-2.217 3.925,-2.296c2.391,-0.133 4.825,0.538 7.237,0.871c-0.904,2.05 -1.242,5.1 -2.8,5.979c-10.012,5.663 -24.579,9.683 -35.529,-1.837c-5.45,-5.734 -9.596,-12.709 -14.383,-19.084c-3.867,-5.15 -7.409,-10.612 -11.792,-15.287c-9.95,-10.621 -23.117,-7.884 -28.008,5.821c-1.625,4.537 -1.863,9.575 -2.505,13.112" style="fill:#fff;fill-rule:nonzero;"/><path d="M861.978,1004.27c-0,-2.504 -0.438,-5.1 0.067,-7.5c5.904,-28.109 30.212,-68.342 67.387,-77.559c26.529,-6.579 50.5,-1.883 71.254,16.538c9.604,8.525 19.279,16.962 28.679,25.708c1.396,1.296 1.43,4.054 2.092,6.138c-2.496,0.116 -5.958,1.35 -7.329,0.162c-7.85,-6.787 -15.479,-13.883 -22.667,-21.375c-15.871,-16.546 -34.862,-24.825 -57.871,-22.408c-31.97,3.358 -51.808,23.054 -65.479,50.237c-4.962,9.863 -8.546,20.417 -12.758,30.65c-1.125,-0.195 -2.25,-0.395 -3.375,-0.591" style="fill:#fff;fill-rule:nonzero;"/><path d="M949.988,1035.34c5.796,26.692 16.842,48.179 39.846,61.979c1.571,0.942 3.604,1.279 4.9,2.467c1.129,1.041 1.521,2.887 2.242,4.379c-1.554,0.612 -3.513,2.146 -4.596,1.671c-4.742,-2.075 -9.767,-4.075 -13.729,-7.292c-19.379,-15.742 -31.888,-35.762 -34.167,-60.95c-0.45,-4.954 2.167,-11.612 5.696,-15.154c5.125,-5.138 12,-1.879 16.667,2.171c5.021,4.358 8.975,10.004 13.162,15.271c3.242,4.087 5.913,8.637 9.217,12.67c10.142,12.384 14.492,13.38 29.542,8.096c2.158,-0.758 4.879,0.088 7.337,0.192c-1.646,2.158 -2.833,5.196 -5.012,6.325c-14.613,7.587 -29.767,2.804 -41.617,-12.95c-5.358,-7.121 -10.054,-14.758 -15.729,-21.6c-1.979,-2.383 -6.088,-4.3 -9.042,-4.075c-1.842,0.137 -3.35,4.687 -4.717,6.8" style="fill:#fff;fill-rule:nonzero;"/><path d="M949.063,898.955c31.175,0.891 55.737,13.379 74.446,37.441c1.308,1.688 2.687,3.504 3.321,5.484c0.558,1.741 0.112,3.804 0.112,5.725c-1.8,-0.663 -4.117,-0.834 -5.308,-2.08c-3.388,-3.541 -6.096,-7.729 -9.454,-11.3c-39.63,-42.108 -104.142,-35.991 -135.209,12.759c-0.658,1.033 -1.025,2.404 -1.921,3.112c-2.3,1.821 -4.82,3.363 -7.254,5.013c0.45,-3.038 0.017,-6.604 1.475,-9.034c18.213,-30.312 45.167,-45.866 79.792,-47.12" style="fill:#fff;fill-rule:nonzero;"/><path d="M987.696,896.17c-2.479,-0 -5.233,0.716 -7.392,-0.117c-14.304,-5.513 -28.983,-8.538 -44.112,-5.2c-8.879,1.958 -17.329,5.796 -26.079,8.429c-2.105,0.633 -4.63,-0.15 -6.967,-0.279c1.142,-1.888 1.821,-4.633 3.492,-5.542c25.062,-13.687 50.833,-14.325 77.012,-3.45c1.742,0.725 3.013,2.592 4.504,3.929c-0.154,0.742 -0.304,1.488 -0.458,2.23" style="fill:#fff;fill-rule:nonzero;"/><path d="M1011.96,1091.49c-6.063,-1.808 -12.55,-2.775 -18.105,-5.583c-14.445,-7.313 -23.85,-19.746 -31.075,-33.85c-0.987,-1.934 -0.045,-4.85 0,-7.313c2.242,1.442 5.067,2.425 6.625,4.409c5.8,7.4 10.292,16.066 17.009,22.429c5.504,5.216 13.466,7.833 20.337,11.604c2.342,1.283 4.679,2.583 7.013,3.875c-0.6,1.475 -1.2,2.954 -1.804,4.429" style="fill:#fff;fill-rule:nonzero;"/></g><defs><linearGradient id="_Linear1" x1="0" y1="0" x2="1" y2="0" gradientUnits="userSpaceOnUse" gradientTransform="matrix(547.2,494.4,-494.4,547.2,826.01,933.268)"><stop offset="0" style="stop-color:#ffebd6;stop-opacity:1"/><stop offset="0.21" style="stop-color:#f50717;stop-opacity:1"/><stop offset="0.57" style="stop-color:#e39592;stop-opacity:1"/><stop offset="1" style="stop-color:#ef283c;stop-opacity:1"/></linearGradient><linearGradient id="_Linear2" x1="0" y1="0" x2="1" y2="0" gradientUnits="userSpaceOnUse" gradientTransform="matrix(326.4,1003.2,-1003.2,326.4,1172.78,449.194)"><stop offset="0" style="stop-color:#ffebd6;stop-opacity:1"/><stop offset="0.34" style="stop-color:#e39592;stop-opacity:1"/><stop offset="0.6" style="stop-color:#f2c2b6;stop-opacity:1"/><stop offset="1" style="stop-color:#bf283c;stop-opacity:1"/></linearGradient><linearGradient id="_Linear3" x1="0" y1="0" x2="1" y2="0" gradientUnits="userSpaceOnUse" gradientTransform="matrix(326.4,1003.2,-1003.2,326.4,990.119,508.626)"><stop offset="0" style="stop-color:#ffebd6;stop-opacity:1"/><stop offset="0.34" style="stop-color:#e39592;stop-opacity:1"/><stop offset="0.6" style="stop-color:#f2c2b6;stop-opacity:1"/><stop offset="1" style="stop-color:#bf283c;stop-opacity:1"/></linearGradient><linearGradient id="_Linear4" x1="0" y1="0" x2="1" y2="0" gradientUnits="userSpaceOnUse" gradientTransform="matrix(1462.44,0,0,1462.44,521.724,1227.39)"><stop offset="0" style="stop-color:#fff;stop-opacity:1"/><stop offset="0.18" style="stop-color:#163519;stop-opacity:1"/><stop offset="0.46" style="stop-color:#1c3f1f;stop-opacity:1"/><stop offset="0.8" style="stop-color:#d1c360;stop-opacity:1"/><stop offset="1" style="stop-color:#337330;stop-opacity:1"/></linearGradient></defs></svg>