<?xml version="1.0" encoding="UTF-8"?>
<!DOCTYPE svg PUBLIC "-//W3C//DTD SVG 1.1//EN" "http://www.w3.org/Graphics/SVG/1.1/DTD/svg11.dtd">
<svg xmlns="http://www.w3.org/2000/svg" version="1.1" width="500px" height="500px" style="shape-rendering:geometricPrecision; text-rendering:geometricPrecision; image-rendering:optimizeQuality; fill-rule:evenodd; clip-rule:evenodd" xmlns:xlink="http://www.w3.org/1999/xlink">
<g><path style="opacity:1" fill="#112a22" d="M 231.5,68.5 C 291.937,64.472 342.771,84.472 384,128.5C 428.788,181.866 440.454,241.866 419,308.5C 393.869,370.81 348.702,409.976 283.5,426C 202.163,436.576 138.996,407.743 94,339.5C 65.8936,288.689 61.8936,236.023 82,181.5C 104.884,128.618 143.718,93.1181 198.5,75C 209.531,72.3121 220.531,70.1454 231.5,68.5 Z"/></g>
<g><path style="opacity:1" fill="#f4f8f7" d="M 231.5,77.5 C 302.48,74.0715 357.313,101.738 396,160.5C 419.677,200.898 426.011,243.898 415,289.5C 396.934,351.233 357.434,392.399 296.5,413C 238.79,428.459 186.79,417.459 140.5,380C 96.2272,340.554 75.7272,291.054 79,231.5C 89.9968,158.863 129.83,110.03 198.5,85C 209.457,81.6744 220.457,79.1744 231.5,77.5 Z"/></g>
<g><path style="opacity:1" fill="#f5f8f6" d="M 136.5,144.5 C 136.942,145.231 137.109,146.231 137,147.5C 139.436,146.645 141.936,145.979 144.5,145.5C 143.886,147.723 142.552,149.389 140.5,150.5C 140.624,151.107 140.957,151.44 141.5,151.5C 142.261,152.391 143.261,153.058 144.5,153.5C 149.337,151.879 154.337,152.212 159.5,154.5C 156.553,155.321 153.553,155.821 150.5,156C 149.09,156.368 148.09,157.201 147.5,158.5C 149.022,164.053 149.689,169.72 149.5,175.5C 144.833,175.5 140.167,175.5 135.5,175.5C 135.33,174.178 135.663,173.011 136.5,172C 139.146,171.503 141.813,171.336 144.5,171.5C 144.5,166.167 144.5,160.833 144.5,155.5C 140.122,155.629 135.955,155.629 132,155.5C 131.727,157.329 130.893,158.829 129.5,160C 130.171,160.986 130.171,162.153 129.5,163.5C 128.758,165.426 127.758,167.259 126.5,169C 132.313,173.795 134.98,179.961 134.5,187.5C 134.787,189.121 135.787,190.121 137.5,190.5C 145.174,189.156 152.841,189.323 160.5,191C 156.654,192.508 152.821,192.675 149,191.5C 145.408,191.926 143.908,193.926 144.5,197.5C 145.675,197.281 146.675,197.614 147.5,198.5C 148.085,201.848 149.418,204.848 151.5,207.5C 150.282,208.803 150.615,209.803 152.5,210.5C 151.443,210.906 150.109,210.906 148.5,210.5C 144.141,205.76 142.141,200.093 142.5,193.5C 139.833,193.5 137.167,193.5 134.5,193.5C 132.714,205.68 133.547,217.68 137,229.5C 138.039,228.29 139.206,227.29 140.5,226.5C 141.89,227.899 142.89,229.566 143.5,231.5C 142.226,232.189 142.226,233.023 143.5,234C 148.776,237.167 154.11,239.333 159.5,240.5C 157.71,236.342 156.71,232.009 156.5,227.5C 156.299,224.235 157.466,221.569 160,219.5C 160.995,220.066 161.828,220.733 162.5,221.5C 161.857,227.164 162.691,232.831 165,238.5C 166.881,239.354 168.714,239.021 170.5,237.5C 172.168,240.865 171.502,243.532 168.5,245.5C 167.895,247.974 166.895,250.307 165.5,252.5C 162.878,259.981 161.378,267.647 161,275.5C 163.985,272.591 167.485,270.591 171.5,269.5C 174.91,269.384 176.244,271.05 175.5,274.5C 171.075,275.879 167.075,278.046 163.5,281C 170.534,286.622 178.534,289.122 187.5,288.5C 190.702,288.537 192.368,290.203 192.5,293.5C 185.68,295.152 179.014,294.819 172.5,292.5C 170.219,291.392 168.052,290.058 166,288.5C 166.157,290.831 166.657,293.164 167.5,295.5C 167.5,295.833 167.5,296.167 167.5,296.5C 167.5,299.167 167.5,301.833 167.5,304.5C 165.833,304.5 164.167,304.5 162.5,304.5C 163.577,301.474 163.577,298.474 162.5,295.5C 162.043,294.702 161.376,294.369 160.5,294.5C 159.438,291.484 158.271,288.484 157,285.5C 156.617,286.056 156.117,286.389 155.5,286.5C 153.362,286.703 151.695,287.703 150.5,289.5C 149.081,288.995 148.415,287.995 148.5,286.5C 149.389,284.264 150.722,282.264 152.5,280.5C 148.522,275.354 144.355,270.354 140,265.5C 139.333,264.167 138.667,264.167 138,265.5C 133.576,278.197 132.41,291.197 134.5,304.5C 137.167,304.5 139.833,304.5 142.5,304.5C 142.335,301.482 142.502,298.482 143,295.5C 143.278,294.584 143.778,293.918 144.5,293.5C 145.117,293.611 145.617,293.944 146,294.5C 146.287,296.891 146.787,299.224 147.5,301.5C 147.167,301.833 146.833,302.167 146.5,302.5C 145.749,301.624 145.249,300.624 145,299.5C 144.598,300.872 144.098,302.205 143.5,303.5C 145.36,304.939 147.027,306.605 148.5,308.5C 144.188,309.253 139.855,309.419 135.5,309C 133.257,312.835 131.757,317.002 131,321.5C 129.017,322.982 127.184,324.649 125.5,326.5C 126.587,331.581 129.253,335.581 133.5,338.5C 136.239,341.024 139.572,342.024 143.5,341.5C 144.319,338.695 144.819,335.695 145,332.5C 146.11,330.963 147.61,330.297 149.5,330.5C 149.185,334.371 149.518,338.038 150.5,341.5C 151.598,342.397 151.598,343.23 150.5,344C 148.576,344.179 146.909,344.346 145.5,344.5C 146.729,345.281 148.062,345.781 149.5,346C 146.167,346.333 142.833,346.667 139.5,347C 140.736,348.085 142.069,348.918 143.5,349.5C 144.687,351.975 146.687,352.975 149.5,352.5C 151.662,357.342 154.996,361.342 159.5,364.5C 156.537,364.849 154.204,363.849 152.5,361.5C 151.263,361.556 150.263,362.056 149.5,363C 152.512,364.101 153.845,365.935 153.5,368.5C 147.753,364.197 142.253,359.531 137,354.5C 128.5,344.807 121,334.474 114.5,323.5C 85.3339,266.532 88.5006,211.532 124,158.5C 128.032,153.639 132.199,148.972 136.5,144.5 Z"/></g>
<g><path style="opacity:1" fill="#f3f7f6" d="M 359.5,141.5 C 395.515,179.058 409.348,223.725 401,275.5C 399.142,283.601 396.975,291.601 394.5,299.5C 389.775,311.953 383.775,323.62 376.5,334.5C 376.586,333.504 376.252,332.671 375.5,332C 377.283,330.933 377.783,329.433 377,327.5C 375.782,325.981 374.282,324.814 372.5,324C 373.171,323.014 373.171,321.847 372.5,320.5C 370.29,320.894 368.957,322.227 368.5,324.5C 365.267,320.867 363.934,316.534 364.5,311.5C 362.801,311.66 361.134,311.494 359.5,311C 356.331,306.999 352.997,303.166 349.5,299.5C 348.133,294.123 345.466,289.456 341.5,285.5C 340.735,286.612 339.735,287.279 338.5,287.5C 336.946,286.086 335.612,284.419 334.5,282.5C 334.709,281.914 335.043,281.414 335.5,281C 329.023,273.928 321.023,269.761 311.5,268.5C 313.671,266.16 315.338,263.494 316.5,260.5C 318.027,262.193 319.36,264.027 320.5,266C 326.106,268.645 331.606,271.479 337,274.5C 336.853,267.075 335.353,259.908 332.5,253C 327.832,254.488 323.165,256.322 318.5,258.5C 317.977,256.164 318.477,253.83 320,251.5C 323.456,249.861 326.623,247.861 329.5,245.5C 327.51,244.502 325.51,243.502 323.5,242.5C 322.359,240.579 322.192,238.579 323,236.5C 326.293,238.208 329.793,239.208 333.5,239.5C 335.131,233.942 336.131,228.276 336.5,222.5C 332.207,223.656 327.874,224.656 323.5,225.5C 323.5,223.167 323.5,220.833 323.5,218.5C 327.302,218.24 330.969,217.406 334.5,216C 330.779,213.473 326.779,211.473 322.5,210C 321.446,207.618 320.779,205.118 320.5,202.5C 320.56,201.957 320.893,201.624 321.5,201.5C 324.32,202.654 326.986,203.987 329.5,205.5C 330.482,206.141 331.482,206.807 332.5,207.5C 333.298,207.043 333.631,206.376 333.5,205.5C 334.048,201.542 334.214,197.208 334,192.5C 334.424,195.025 335.59,197.025 337.5,198.5C 339.228,202.685 340.561,207.018 341.5,211.5C 345.727,207.712 348.393,203.045 349.5,197.5C 352.932,197.873 355.266,196.54 356.5,193.5C 355.915,202.504 352.248,210.004 345.5,216C 351.291,220.122 356.791,224.622 362,229.5C 365.508,217.691 366.341,205.691 364.5,193.5C 362.5,193.5 360.5,193.5 358.5,193.5C 359.79,192.065 361.456,191.065 363.5,190.5C 364.127,189.583 364.461,188.583 364.5,187.5C 363.636,179.768 366.303,173.601 372.5,169C 369.743,164.821 366.743,160.821 363.5,157C 360.304,156.195 357.304,156.362 354.5,157.5C 353.153,156.829 351.986,156.829 351,157.5C 349.731,156.095 349.231,154.429 349.5,152.5C 351.792,152.244 353.959,152.577 356,153.5C 356.464,152.906 356.631,152.239 356.5,151.5C 356.833,151.5 357.167,151.5 357.5,151.5C 359.422,149.916 361.089,148.082 362.5,146C 360.137,145.411 359.137,143.911 359.5,141.5 Z"/></g>
<g><path style="opacity:1" fill="#0e2720" d="M 310.5,135.5 C 300.974,138.102 294.64,144.102 291.5,153.5C 289.37,155.127 287.37,156.96 285.5,159C 286.693,160.095 288.027,160.928 289.5,161.5C 292.794,164.156 296.127,166.822 299.5,169.5C 301.5,172.167 303.833,174.5 306.5,176.5C 307.124,178.754 308.457,180.421 310.5,181.5C 312.757,185.683 314.757,190.016 316.5,194.5C 317.866,197.232 319.199,199.899 320.5,202.5C 320.779,205.118 321.446,207.618 322.5,210C 326.779,211.473 330.779,213.473 334.5,216C 330.969,217.406 327.302,218.24 323.5,218.5C 323.5,220.833 323.5,223.167 323.5,225.5C 327.874,224.656 332.207,223.656 336.5,222.5C 336.131,228.276 335.131,233.942 333.5,239.5C 329.793,239.208 326.293,238.208 323,236.5C 322.192,238.579 322.359,240.579 323.5,242.5C 325.51,243.502 327.51,244.502 329.5,245.5C 326.623,247.861 323.456,249.861 320,251.5C 318.477,253.83 317.977,256.164 318.5,258.5C 323.165,256.322 327.832,254.488 332.5,253C 335.353,259.908 336.853,267.075 337,274.5C 331.606,271.479 326.106,268.645 320.5,266C 319.36,264.027 318.027,262.193 316.5,260.5C 315.338,263.494 313.671,266.16 311.5,268.5C 321.023,269.761 329.023,273.928 335.5,281C 335.043,281.414 334.709,281.914 334.5,282.5C 335.612,284.419 336.946,286.086 338.5,287.5C 342.195,291.526 345.862,295.526 349.5,299.5C 352.997,303.166 356.331,306.999 359.5,311C 361.134,311.494 362.801,311.66 364.5,311.5C 363.934,316.534 365.267,320.867 368.5,324.5C 368.92,326.094 369.586,327.594 370.5,329C 364.346,338.835 357.013,347.835 348.5,356C 347.473,356.513 346.473,357.013 345.5,357.5C 342.391,357.736 339.391,357.403 336.5,356.5C 334.297,356.396 332.297,355.73 330.5,354.5C 325.804,351.127 321.47,347.46 317.5,343.5C 315.883,340.216 313.55,337.549 310.5,335.5C 308.138,332.808 305.804,330.141 303.5,327.5C 299.495,322.237 294.995,317.237 290,312.5C 289.149,316.042 289.649,319.375 291.5,322.5C 291.043,323.298 290.376,323.631 289.5,323.5C 286.833,323.5 284.167,323.5 281.5,323.5C 281.656,319.418 281.156,315.418 280,311.5C 279.208,308.894 277.708,306.894 275.5,305.5C 275.369,304.624 275.702,303.957 276.5,303.5C 278.5,302.833 280.5,302.167 282.5,301.5C 283.221,299.314 283.887,297.147 284.5,295C 284.167,294.833 283.833,294.667 283.5,294.5C 276.084,298.972 268.084,301.639 259.5,302.5C 259.5,304.5 259.5,306.5 259.5,308.5C 258.166,313.501 256.833,318.501 255.5,323.5C 251.116,323.826 246.783,323.492 242.5,322.5C 240.421,317.683 239.088,312.683 238.5,307.5C 238.714,305.856 238.38,304.356 237.5,303C 210.36,299.017 190.526,284.851 178,260.5C 177.503,262.81 177.337,265.143 177.5,267.5C 175.214,267.595 173.214,268.262 171.5,269.5C 167.485,270.591 163.985,272.591 161,275.5C 161.378,267.647 162.878,259.981 165.5,252.5C 169.43,254.634 173.43,256.467 177.5,258C 176.144,255.602 174.977,253.102 174,250.5C 171.809,249.167 169.976,247.5 168.5,245.5C 171.502,243.532 172.168,240.865 170.5,237.5C 168.714,239.021 166.881,239.354 165,238.5C 162.691,232.831 161.857,227.164 162.5,221.5C 164.684,223.585 167.351,224.585 170.5,224.5C 170.662,222.473 170.495,220.473 170,218.5C 168.184,217.671 166.351,216.837 164.5,216C 167,214.167 169.5,212.333 172,210.5C 172.44,208.134 172.94,205.801 173.5,203.5C 175.732,197.153 178.732,191.153 182.5,185.5C 186.076,179.587 190.409,174.254 195.5,169.5C 198.873,166.822 202.206,164.156 205.5,161.5C 213.075,159.493 213.408,156.493 206.5,152.5C 203.21,144.544 197.544,138.877 189.5,135.5C 188.832,133.031 188.165,130.698 187.5,128.5C 185.736,124.961 183.903,121.627 182,118.5C 183.388,117.446 184.888,117.28 186.5,118C 188.167,119 189.833,120 191.5,121C 194.786,137.122 204.453,147.289 220.5,151.5C 219.121,152.863 219.287,153.863 221,154.5C 239.753,147.739 258.419,148.072 277,155.5C 277.5,155.167 278,154.833 278.5,154.5C 277.754,153.264 277.421,151.93 277.5,150.5C 288.41,149.433 296.576,144.099 302,134.5C 303.181,130.109 304.514,125.776 306,121.5C 307.918,120.458 309.751,119.292 311.5,118C 313.809,117.244 315.809,117.744 317.5,119.5C 311.902,123.365 309.569,128.699 310.5,135.5 Z"/></g>
<g><path style="opacity:1" fill="#0e2821" d="M 409.5,225.5 C 410.876,239.187 410.71,252.854 409,266.5C 408.346,265.304 407.846,265.304 407.5,266.5C 408.165,268.101 408.499,269.601 408.5,271C 405.289,280.944 402.789,291.111 401,301.5C 400.586,301.957 400.086,302.291 399.5,302.5C 397.853,301.867 396.187,300.867 394.5,299.5C 396.975,291.601 399.142,283.601 401,275.5C 409.348,223.725 395.515,179.058 359.5,141.5C 320.934,103.257 274.6,88.09 220.5,96C 187.321,103.738 159.321,119.905 136.5,144.5C 132.199,148.972 128.032,153.639 124,158.5C 88.5006,211.532 85.3339,266.532 114.5,323.5C 112.392,325.807 111.059,328.14 110.5,330.5C 85.2725,287.519 80.4391,242.186 96,194.5C 120.127,134.671 163.961,98.8381 227.5,87C 293.144,81.4054 345.31,104.905 384,157.5C 397.84,178.178 406.34,200.844 409.5,225.5 Z"/></g>
<g><path style="opacity:1" fill="#102721" d="M 357.5,238.5 C 358.5,238.5 359.5,238.5 360.5,238.5C 359.502,243.825 358.502,249.158 357.5,254.5C 352.667,251.918 348,249.085 343.5,246C 348.356,243.74 353.022,241.24 357.5,238.5 Z"/></g>
<g><path style="opacity:1" fill="#0e2820" d="M 392.5,223.5 C 394.14,226.488 394.974,229.821 395,233.5C 396.108,246.942 395.441,260.275 393,273.5C 388.434,264.704 383.601,256.037 378.5,247.5C 383.683,239.801 388.35,231.801 392.5,223.5 Z"/></g>
<g><path style="opacity:1" fill="#0e2820" d="M 105.5,223.5 C 110.156,231.475 114.823,239.475 119.5,247.5C 115.2,255.209 111.367,263.209 108,271.5C 107.311,272.357 106.478,273.023 105.5,273.5C 101.551,256.781 101.551,240.114 105.5,223.5 Z"/></g>
<g><path style="opacity:1" fill="#162a25" d="M 381.5,227.5 C 381.421,232.479 379.421,236.979 375.5,241C 372.394,239.935 369.727,237.935 367.5,235C 372.282,232.584 376.948,230.084 381.5,227.5 Z"/></g>
<g><path style="opacity:1" fill="#152922" d="M 342.5,221.5 C 347.293,225.121 351.96,228.954 356.5,233C 350.741,236.465 344.741,239.131 338.5,241C 341.173,234.804 342.506,228.304 342.5,221.5 Z"/></g>
<g><path style="opacity:1" fill="#152b23" d="M 115.5,227.5 C 120.932,229.715 126.265,232.215 131.5,235C 129.317,237.35 126.984,239.517 124.5,241.5C 120.482,237.459 117.482,232.793 115.5,227.5 Z"/></g>
<g><path style="opacity:1" fill="#102622" d="M 156.5,227.5 C 156.71,232.009 157.71,236.342 159.5,240.5C 154.11,239.333 148.776,237.167 143.5,234C 142.226,233.023 142.226,232.189 143.5,231.5C 147.031,228.147 150.864,225.147 155,222.5C 155.198,224.382 155.698,226.048 156.5,227.5 Z"/></g>
<g><path style="opacity:1" fill="#122821" d="M 371.5,202.5 C 378.65,204.9 383.983,209.4 387.5,216C 387.355,216.772 387.022,217.439 386.5,218C 380.747,221.294 374.913,224.46 369,227.5C 370.873,219.342 371.706,211.008 371.5,202.5 Z"/></g>
<g><path style="opacity:1" fill="#0f2720" d="M 148.5,210.5 C 149.96,212.463 151.627,214.296 153.5,216C 148.689,218.985 144.356,222.485 140.5,226.5C 139.206,227.29 138.039,228.29 137,229.5C 133.547,217.68 132.714,205.68 134.5,193.5C 137.167,193.5 139.833,193.5 142.5,193.5C 142.141,200.093 144.141,205.76 148.5,210.5 Z"/></g>
<g><path style="opacity:1" fill="#102921" d="M 125.5,202.5 C 127.055,210.078 128.722,217.912 130.5,226C 130.167,226.5 129.833,227 129.5,227.5C 123.003,224.086 116.67,220.419 110.5,216.5C 114.264,210.399 119.264,205.732 125.5,202.5 Z"/></g>
<g><path style="opacity:1" fill="#0e2720" d="M 356.5,193.5 C 357.167,193.5 357.833,193.5 358.5,193.5C 360.5,193.5 362.5,193.5 364.5,193.5C 366.341,205.691 365.508,217.691 362,229.5C 356.791,224.622 351.291,220.122 345.5,216C 352.248,210.004 355.915,202.504 356.5,193.5 Z"/></g>
<g><path style="opacity:1" fill="#243024" d="M 332.5,203.5 C 332.328,204.492 332.662,205.158 333.5,205.5C 333.631,206.376 333.298,207.043 332.5,207.5C 331.482,206.807 330.482,206.141 329.5,205.5C 329.973,204.094 330.973,203.427 332.5,203.5 Z"/></g>
<g><path style="opacity:1" fill="#807b57" d="M 349.5,197.5 C 348.393,203.045 345.727,207.712 341.5,211.5C 340.561,207.018 339.228,202.685 337.5,198.5C 336.962,196.883 336.629,195.216 336.5,193.5C 340.833,193.5 345.167,193.5 349.5,193.5C 349.5,194.833 349.5,196.167 349.5,197.5 Z"/></g>
<g><path style="opacity:1" fill="#182b25" d="M 381.5,192.5 C 382.833,192.5 384.167,192.5 385.5,192.5C 387.004,197.145 388.17,201.811 389,206.5C 384.172,200.67 378.005,197.336 370.5,196.5C 370.5,195.5 370.5,194.5 370.5,193.5C 374.371,193.815 378.038,193.482 381.5,192.5 Z"/></g>
<g><path style="opacity:1" fill="#182d26" d="M 113.5,192.5 C 118.508,193.001 123.508,193.668 128.5,194.5C 121.511,197.087 115.344,201.087 110,206.5C 110.255,201.641 111.421,196.974 113.5,192.5 Z"/></g>
<g><path style="opacity:1" fill="#142922" d="M 121.5,175.5 C 126.562,177.317 128.895,180.984 128.5,186.5C 124.445,186.824 120.445,186.491 116.5,185.5C 118.193,182.114 119.86,178.78 121.5,175.5 Z"/></g>
<g><path style="opacity:1" fill="#142a24" d="M 374.5,175.5 C 376.017,175.511 377.184,176.177 378,177.5C 379.741,180.309 380.908,183.309 381.5,186.5C 377.833,186.5 374.167,186.5 370.5,186.5C 370.436,182.301 371.769,178.634 374.5,175.5 Z"/></g>
<g><path style="opacity:1" fill="#8b835e" d="M 332.5,203.5 C 330.973,203.427 329.973,204.094 329.5,205.5C 326.986,203.987 324.32,202.654 321.5,201.5C 320.893,201.624 320.56,201.957 320.5,202.5C 319.199,199.899 317.866,197.232 316.5,194.5C 317.497,177.341 317.83,160.008 317.5,142.5C 321.833,142.5 326.167,142.5 330.5,142.5C 330.333,160.836 330.5,179.17 331,197.5C 331.315,199.586 331.815,201.586 332.5,203.5 Z"/></g>
<g><path style="opacity:1" fill="#91896a" d="M 364.5,187.5 C 355.5,187.5 346.5,187.5 337.5,187.5C 337.5,183.833 337.5,180.167 337.5,176.5C 346.682,176.827 355.682,176.493 364.5,175.5C 364.877,173.742 365.544,172.075 366.5,170.5C 362.555,169.509 358.555,169.176 354.5,169.5C 354.5,165.5 354.5,161.5 354.5,157.5C 357.304,156.362 360.304,156.195 363.5,157C 366.743,160.821 369.743,164.821 372.5,169C 366.303,173.601 363.636,179.768 364.5,187.5 Z"/></g>
<g><path style="opacity:1" fill="#7a7664" d="M 306.5,176.5 C 307.833,176.5 309.167,176.5 310.5,176.5C 310.5,178.167 310.5,179.833 310.5,181.5C 308.457,180.421 307.124,178.754 306.5,176.5 Z"/></g>
<g><path style="opacity:1" fill="#d2ceb8" d="M 364.5,175.5 C 355.682,176.493 346.682,176.827 337.5,176.5C 337.5,180.167 337.5,183.833 337.5,187.5C 336.517,183.702 336.183,179.702 336.5,175.5C 345.833,175.5 355.167,175.5 364.5,175.5 Z"/></g>
<g><path style="opacity:1" fill="#efecdd" d="M 141.5,151.5 C 148.167,151.5 154.833,151.5 161.5,151.5C 161.586,152.496 161.252,153.329 160.5,154C 162.227,155.389 163.561,157.056 164.5,159C 163.406,168.151 163.406,177.151 164.5,186C 163.756,187.039 162.756,187.539 161.5,187.5C 161.5,177.5 161.5,167.5 161.5,157.5C 157.833,157.5 154.167,157.5 150.5,157.5C 150.5,163.833 150.5,170.167 150.5,176.5C 145.167,176.5 139.833,176.5 134.5,176.5C 134.682,174.409 134.348,172.409 133.5,170.5C 136.768,169.513 140.102,169.18 143.5,169.5C 143.5,165.5 143.5,161.5 143.5,157.5C 140.482,157.335 137.482,157.502 134.5,158C 133.167,160.191 131.5,162.024 129.5,163.5C 130.171,162.153 130.171,160.986 129.5,160C 130.893,158.829 131.727,157.329 132,155.5C 135.955,155.629 140.122,155.629 144.5,155.5C 144.5,160.833 144.5,166.167 144.5,171.5C 141.813,171.336 139.146,171.503 136.5,172C 135.663,173.011 135.33,174.178 135.5,175.5C 140.167,175.5 144.833,175.5 149.5,175.5C 149.689,169.72 149.022,164.053 147.5,158.5C 148.09,157.201 149.09,156.368 150.5,156C 153.553,155.821 156.553,155.321 159.5,154.5C 154.337,152.212 149.337,151.879 144.5,153.5C 143.261,153.058 142.261,152.391 141.5,151.5 Z"/></g>
<g><path style="opacity:1" fill="#f9f9f2" d="M 195.5,169.5 C 190.409,174.254 186.076,179.587 182.5,185.5C 181.505,174.346 181.172,163.012 181.5,151.5C 183.833,151.5 186.167,151.5 188.5,151.5C 188.5,157.5 188.5,163.5 188.5,169.5C 190.833,169.5 193.167,169.5 195.5,169.5 Z"/></g>
<g><path style="opacity:1" fill="#918865" d="M 161.5,187.5 C 152.5,187.5 143.5,187.5 134.5,187.5C 134.98,179.961 132.313,173.795 126.5,169C 127.758,167.259 128.758,165.426 129.5,163.5C 131.5,162.024 133.167,160.191 134.5,158C 137.482,157.502 140.482,157.335 143.5,157.5C 143.5,161.5 143.5,165.5 143.5,169.5C 140.102,169.18 136.768,169.513 133.5,170.5C 134.348,172.409 134.682,174.409 134.5,176.5C 139.833,176.5 145.167,176.5 150.5,176.5C 150.5,170.167 150.5,163.833 150.5,157.5C 154.167,157.5 157.833,157.5 161.5,157.5C 161.5,167.5 161.5,177.5 161.5,187.5 Z"/></g>
<g><path style="opacity:1" fill="#f4f8f7" d="M 234.5,160.5 C 267.776,156.718 292.276,169.385 308,198.5C 320.671,235.489 310.838,264.656 278.5,286C 240.54,301.787 210.373,292.62 188,258.5C 172.942,224.241 179.775,195.408 208.5,172C 216.649,166.754 225.315,162.921 234.5,160.5 Z"/></g>
<g><path style="opacity:1" fill="#0f2821" d="M 238.5,169.5 C 264.025,167.847 283.858,177.514 298,198.5C 307.192,219.145 306.525,239.478 296,259.5C 276.954,283.624 252.787,290.791 223.5,281C 195.935,266.704 184.769,244.204 190,213.5C 197.839,189.488 214.005,174.821 238.5,169.5 Z"/></g>
<g><path style="opacity:1" fill="#f2f6f6" d="M 237.5,176.5 C 267.981,174.168 287.814,187.501 297,216.5C 300.677,248.463 287.177,268.963 256.5,278C 233.385,280.859 215.218,272.693 202,253.5C 189.587,225.65 195.421,202.483 219.5,184C 225.485,181.166 231.485,178.666 237.5,176.5 Z"/></g>
<g><path style="opacity:1" fill="#0c271f" d="M 236.5,184.5 C 265.211,181.418 283.044,193.752 290,221.5C 291.111,248.381 278.611,264.881 252.5,271C 227.995,271.836 211.828,260.669 204,237.5C 201.081,211.328 211.915,193.662 236.5,184.5 Z"/></g>
<g><path style="opacity:1" fill="#f4f8f8" d="M 258.5,203.5 C 260.159,206.674 261.826,210.008 263.5,213.5C 267.5,214.333 271.5,215.167 275.5,216C 272.705,217.793 270.205,219.96 268,222.5C 268.245,226.813 268.245,231.147 268,235.5C 264.918,233.375 261.751,231.375 258.5,229.5C 255.833,231.167 253.167,232.833 250.5,234.5C 249.243,231.156 249.243,227.823 250.5,224.5C 248.016,221.516 245.35,218.682 242.5,216C 246.03,214.842 249.697,214.008 253.5,213.5C 255.705,210.423 257.372,207.09 258.5,203.5 Z"/></g>
<g><path style="opacity:1" fill="#f5f8f8" d="M 227.5,200.5 C 228.239,200.369 228.906,200.536 229.5,201C 218.313,218.349 220.646,233.682 236.5,247C 243.845,251.603 251.845,253.269 260.5,252C 265.084,250.524 269.418,248.857 273.5,247C 265.228,259.665 253.562,264.665 238.5,262C 219.349,255.888 210.515,242.721 212,222.5C 214.486,213.166 219.653,205.833 227.5,200.5 Z"/></g>
<g><path style="opacity:1" fill="#8f8866" d="M 299.5,169.5 C 296.127,166.822 292.794,164.156 289.5,161.5C 291.853,160.66 293.853,159.326 295.5,157.5C 300.438,156.608 305.438,156.274 310.5,156.5C 310.5,160.833 310.5,165.167 310.5,169.5C 306.833,169.5 303.167,169.5 299.5,169.5 Z"/></g>
<g><path style="opacity:1" fill="#fbfaf2" d="M 337.5,132.5 C 336.628,138.789 336.295,145.122 336.5,151.5C 343.167,151.5 349.833,151.5 356.5,151.5C 356.631,152.239 356.464,152.906 356,153.5C 353.959,152.577 351.792,152.244 349.5,152.5C 349.231,154.429 349.731,156.095 351,157.5C 351.986,156.829 353.153,156.829 354.5,157.5C 354.5,161.5 354.5,165.5 354.5,169.5C 358.555,169.176 362.555,169.509 366.5,170.5C 365.544,172.075 364.877,173.742 364.5,175.5C 355.167,175.5 345.833,175.5 336.5,175.5C 336.183,179.702 336.517,183.702 337.5,187.5C 346.5,187.5 355.5,187.5 364.5,187.5C 364.461,188.583 364.127,189.583 363.5,190.5C 361.456,191.065 359.79,192.065 358.5,193.5C 357.833,193.5 357.167,193.5 356.5,193.5C 355.266,196.54 352.932,197.873 349.5,197.5C 349.5,196.167 349.5,194.833 349.5,193.5C 345.167,193.5 340.833,193.5 336.5,193.5C 336.629,195.216 336.962,196.883 337.5,198.5C 335.59,197.025 334.424,195.025 334,192.5C 334.214,197.208 334.048,201.542 333.5,205.5C 332.662,205.158 332.328,204.492 332.5,203.5C 331.815,201.586 331.315,199.586 331,197.5C 330.5,179.17 330.333,160.836 330.5,142.5C 326.167,142.5 321.833,142.5 317.5,142.5C 317.83,160.008 317.497,177.341 316.5,194.5C 314.757,190.016 312.757,185.683 310.5,181.5C 310.5,179.833 310.5,178.167 310.5,176.5C 309.167,176.5 307.833,176.5 306.5,176.5C 303.833,174.5 301.5,172.167 299.5,169.5C 303.167,169.5 306.833,169.5 310.5,169.5C 310.5,165.167 310.5,160.833 310.5,156.5C 305.438,156.274 300.438,156.608 295.5,157.5C 299.295,155.825 303.462,154.825 308,154.5C 310.398,154.958 312.064,156.292 313,158.5C 313.667,157.167 314.333,155.833 315,154.5C 315.178,149.373 316.012,144.373 317.5,139.5C 316.167,138.5 314.833,137.5 313.5,136.5C 315.067,134.104 315.9,131.437 316,128.5C 316.671,127.748 317.504,127.414 318.5,127.5C 317.209,126.527 317.209,125.527 318.5,124.5C 320.742,123.308 323.075,122.308 325.5,121.5C 327.831,123.66 330.331,125.66 333,127.5C 332.502,129.527 332.669,131.527 333.5,133.5C 335.219,134.789 336.553,134.455 337.5,132.5 Z"/></g>
<g><path style="opacity:1" fill="#978f74" d="M 336.5,156.5 C 340.5,156.5 344.5,156.5 348.5,156.5C 348.5,160.833 348.5,165.167 348.5,169.5C 344.5,169.5 340.5,169.5 336.5,169.5C 336.5,165.167 336.5,160.833 336.5,156.5 Z"/></g>
<g><path style="opacity:1" fill="#8f8765" d="M 187.5,128.5 C 188.165,130.698 188.832,133.031 189.5,135.5C 197.544,138.877 203.21,144.544 206.5,152.5C 204.283,151.631 201.95,151.298 199.5,151.5C 199.215,153.288 199.548,154.955 200.5,156.5C 202.521,157.855 204.188,159.521 205.5,161.5C 202.206,164.156 198.873,166.822 195.5,169.5C 193.167,169.5 190.833,169.5 188.5,169.5C 188.5,163.5 188.5,157.5 188.5,151.5C 186.167,151.5 183.833,151.5 181.5,151.5C 181.172,163.012 181.505,174.346 182.5,185.5C 178.732,191.153 175.732,197.153 173.5,203.5C 173.565,203.062 173.399,202.728 173,202.5C 170.667,204.167 168.333,205.833 166,207.5C 166.167,203.812 166.834,200.145 168,196.5C 168.5,178.503 168.667,160.503 168.5,142.5C 174.869,142.653 181.203,142.32 187.5,141.5C 187.5,137.167 187.5,132.833 187.5,128.5 Z"/></g>
<g><path style="opacity:1" fill="#938e6b" d="M 161.5,151.5 C 154.833,151.5 148.167,151.5 141.5,151.5C 140.957,151.44 140.624,151.107 140.5,150.5C 142.552,149.389 143.886,147.723 144.5,145.5C 146.167,145.5 147.833,145.5 149.5,145.5C 149.343,144.127 149.51,142.793 150,141.5C 153.209,137.767 157.043,135.101 161.5,133.5C 161.5,139.5 161.5,145.5 161.5,151.5 Z"/></g>
<g><path style="opacity:1" fill="#f4f7f5" d="M 359.5,141.5 C 359.137,143.911 360.137,145.411 362.5,146C 361.089,148.082 359.422,149.916 357.5,151.5C 356.256,147.588 353.589,145.588 349.5,145.5C 349.657,144.127 349.49,142.793 349,141.5C 345.291,138.285 341.458,135.285 337.5,132.5C 336.553,134.455 335.219,134.789 333.5,133.5C 332.669,131.527 332.502,129.527 333,127.5C 330.331,125.66 327.831,123.66 325.5,121.5C 323.075,122.308 320.742,123.308 318.5,124.5C 317.209,125.527 317.209,126.527 318.5,127.5C 317.504,127.414 316.671,127.748 316,128.5C 315.9,131.437 315.067,134.104 313.5,136.5C 314.833,137.5 316.167,138.5 317.5,139.5C 316.012,144.373 315.178,149.373 315,154.5C 314.333,155.833 313.667,157.167 313,158.5C 312.064,156.292 310.398,154.958 308,154.5C 303.462,154.825 299.295,155.825 295.5,157.5C 293.853,159.326 291.853,160.66 289.5,161.5C 288.027,160.928 286.693,160.095 285.5,159C 287.37,156.96 289.37,155.127 291.5,153.5C 292.289,153.217 292.956,152.717 293.5,152C 299.157,151.501 304.824,151.334 310.5,151.5C 310.5,146.167 310.5,140.833 310.5,135.5C 309.569,128.699 311.902,123.365 317.5,119.5C 315.809,117.744 313.809,117.244 311.5,118C 309.751,119.292 307.918,120.458 306,121.5C 304.514,125.776 303.181,130.109 302,134.5C 296.576,144.099 288.41,149.433 277.5,150.5C 277.421,151.93 277.754,153.264 278.5,154.5C 278,154.833 277.5,155.167 277,155.5C 258.419,148.072 239.753,147.739 221,154.5C 219.287,153.863 219.121,152.863 220.5,151.5C 204.453,147.289 194.786,137.122 191.5,121C 189.833,120 188.167,119 186.5,118C 184.888,117.28 183.388,117.446 182,118.5C 183.903,121.627 185.736,124.961 187.5,128.5C 187.5,132.833 187.5,137.167 187.5,141.5C 181.203,142.32 174.869,142.653 168.5,142.5C 168.667,160.503 168.5,178.503 168,196.5C 166.834,200.145 166.167,203.812 166,207.5C 168.333,205.833 170.667,204.167 173,202.5C 173.399,202.728 173.565,203.062 173.5,203.5C 172.94,205.801 172.44,208.134 172,210.5C 169.5,212.333 167,214.167 164.5,216C 166.351,216.837 168.184,217.671 170,218.5C 170.495,220.473 170.662,222.473 170.5,224.5C 167.351,224.585 164.684,223.585 162.5,221.5C 161.828,220.733 160.995,220.066 160,219.5C 157.466,221.569 156.299,224.235 156.5,227.5C 155.698,226.048 155.198,224.382 155,222.5C 150.864,225.147 147.031,228.147 143.5,231.5C 142.89,229.566 141.89,227.899 140.5,226.5C 144.356,222.485 148.689,218.985 153.5,216C 151.627,214.296 149.96,212.463 148.5,210.5C 150.109,210.906 151.443,210.906 152.5,210.5C 150.615,209.803 150.282,208.803 151.5,207.5C 149.418,204.848 148.085,201.848 147.5,198.5C 146.675,197.614 145.675,197.281 144.5,197.5C 143.908,193.926 145.408,191.926 149,191.5C 152.821,192.675 156.654,192.508 160.5,191C 152.841,189.323 145.174,189.156 137.5,190.5C 135.787,190.121 134.787,189.121 134.5,187.5C 143.5,187.5 152.5,187.5 161.5,187.5C 162.756,187.539 163.756,187.039 164.5,186C 163.406,177.151 163.406,168.151 164.5,159C 163.561,157.056 162.227,155.389 160.5,154C 161.252,153.329 161.586,152.496 161.5,151.5C 161.5,145.5 161.5,139.5 161.5,133.5C 157.043,135.101 153.209,137.767 150,141.5C 149.51,142.793 149.343,144.127 149.5,145.5C 147.833,145.5 146.167,145.5 144.5,145.5C 141.936,145.979 139.436,146.645 137,147.5C 137.109,146.231 136.942,145.231 136.5,144.5C 159.321,119.905 187.321,103.738 220.5,96C 274.6,88.09 320.934,103.257 359.5,141.5 Z"/></g>
<g><path style="opacity:1" fill="#837b58" d="M 149.5,193.5 C 153.884,193.174 158.217,193.508 162.5,194.5C 160.37,200.02 158.703,205.686 157.5,211.5C 151.573,206.976 148.906,200.976 149.5,193.5 Z"/></g>
<g><path style="opacity:1" fill="#efefe7" d="M 206.5,152.5 C 213.408,156.493 213.075,159.493 205.5,161.5C 204.188,159.521 202.521,157.855 200.5,156.5C 199.548,154.955 199.215,153.288 199.5,151.5C 201.95,151.298 204.283,151.631 206.5,152.5 Z"/></g>
<g><path style="opacity:1" fill="#97906f" d="M 337.5,132.5 C 341.458,135.285 345.291,138.285 349,141.5C 349.49,142.793 349.657,144.127 349.5,145.5C 353.589,145.588 356.256,147.588 357.5,151.5C 357.167,151.5 356.833,151.5 356.5,151.5C 349.833,151.5 343.167,151.5 336.5,151.5C 336.295,145.122 336.628,138.789 337.5,132.5 Z"/></g>
<g><path style="opacity:1" fill="#122a23" d="M 263.5,131.5 C 266.657,135.957 268.657,140.957 269.5,146.5C 264.786,146.827 260.12,146.493 255.5,145.5C 258.179,140.806 260.845,136.139 263.5,131.5 Z"/></g>
<g><path style="opacity:1" fill="#102820" d="M 233.5,132.5 C 235.074,132.937 236.241,133.937 237,135.5C 238.579,138.994 240.413,142.327 242.5,145.5C 237.88,146.493 233.214,146.827 228.5,146.5C 229.602,141.629 231.269,136.962 233.5,132.5 Z"/></g>
<g><path style="opacity:1" fill="#8e896d" d="M 310.5,135.5 C 310.5,140.833 310.5,146.167 310.5,151.5C 304.824,151.334 299.157,151.501 293.5,152C 292.956,152.717 292.289,153.217 291.5,153.5C 294.64,144.102 300.974,138.102 310.5,135.5 Z"/></g>
<g><path style="opacity:1" fill="#102a20" d="M 294.5,126.5 C 295.978,126.238 297.311,126.571 298.5,127.5C 294.246,138.101 286.579,143.434 275.5,143.5C 273.536,139.246 271.869,134.912 270.5,130.5C 278.869,130.541 286.869,129.207 294.5,126.5 Z"/></g>
<g><path style="opacity:1" fill="#0c271f" d="M 199.5,127.5 C 199.735,126.903 200.235,126.57 201,126.5C 209.957,129.183 219.124,130.683 228.5,131C 226.099,134.969 224.099,139.135 222.5,143.5C 216.912,144.363 211.912,142.863 207.5,139C 204.195,135.536 201.528,131.703 199.5,127.5 Z"/></g>
<g><path style="opacity:1" fill="#132720" d="M 257.5,131.5 C 254.889,135.951 252.056,140.284 249,144.5C 246.228,140.612 243.728,136.612 241.5,132.5C 246.64,131.512 251.974,131.179 257.5,131.5 Z"/></g>
<g><path style="opacity:1" fill="#78837f" d="M 257.5,131.5 C 251.974,131.179 246.64,131.512 241.5,132.5C 240.957,132.44 240.624,132.107 240.5,131.5C 243.5,131.167 246.5,130.833 249.5,130.5C 252.938,130.449 255.604,130.782 257.5,131.5 Z"/></g>
<g><path style="opacity:1" fill="#938d6f" d="M 318.5,127.5 C 322.259,123.542 326.092,123.542 330,127.5C 330.497,130.146 330.664,132.813 330.5,135.5C 326.167,135.5 321.833,135.5 317.5,135.5C 317.279,132.721 317.612,130.054 318.5,127.5 Z"/></g>
<g><path style="opacity:1" fill="#988f72" d="M 173.5,123.5 C 179.95,125.386 182.617,129.719 181.5,136.5C 177.167,136.5 172.833,136.5 168.5,136.5C 168.18,133.102 168.513,129.768 169.5,126.5C 171.261,125.965 172.594,124.965 173.5,123.5 Z"/></g>
<g><path style="opacity:1" fill="#112923" d="M 204.5,108.5 C 214.728,110.229 222.728,115.396 228.5,124C 218.083,124.845 208.083,123.179 198.5,119C 196.208,117.71 194.208,116.043 192.5,114C 196.644,112.241 200.644,110.408 204.5,108.5 Z"/></g>
<g><path style="opacity:1" fill="#0d271e" d="M 248.5,108.5 C 253.269,112.615 256.935,117.615 259.5,123.5C 252.5,124.833 245.5,124.833 238.5,123.5C 241.099,117.955 244.433,112.955 248.5,108.5 Z"/></g>
<g><path style="opacity:1" fill="#0d281f" d="M 290.5,108.5 C 295.91,110.026 301.244,111.859 306.5,114C 300.116,119.133 292.783,122.133 284.5,123C 279.514,123.916 274.514,124.25 269.5,124C 274.783,116.373 281.783,111.206 290.5,108.5 Z"/></g>
<g><path style="opacity:1" fill="#0e2921" d="M 231.5,102.5 C 235.846,102.334 240.179,102.501 244.5,103C 240.708,108.749 237.042,114.582 233.5,120.5C 229.442,113.801 223.775,108.968 216.5,106C 217.623,104.956 218.956,104.29 220.5,104C 224.356,103.823 228.023,103.323 231.5,102.5 Z"/></g>
<g><path style="opacity:1" fill="#122822" d="M 253.5,102.5 C 263.077,101.926 272.411,103.093 281.5,106C 274.728,109.61 269.062,114.443 264.5,120.5C 260.811,114.444 257.144,108.444 253.5,102.5 Z"/></g>
<g><path style="opacity:1" fill="#1b2a24" d="M 132.5,241.5 C 134.298,245.219 134.798,249.219 134,253.5C 131.982,251.65 130.149,249.65 128.5,247.5C 129.844,245.471 131.177,243.471 132.5,241.5 Z"/></g>
<g><path style="opacity:1" fill="#152b23" d="M 137.5,239.5 C 137.735,238.903 138.235,238.57 139,238.5C 144.678,240.589 150.178,243.089 155.5,246C 150.5,249.167 145.5,252.333 140.5,255.5C 139.76,249.981 138.76,244.648 137.5,239.5 Z"/></g>
<g><path style="opacity:1" fill="#222f2a" d="M 365.5,241.5 C 367.148,243.429 368.815,245.429 370.5,247.5C 369.167,249.5 367.5,251.167 365.5,252.5C 364.317,248.825 364.317,245.159 365.5,241.5 Z"/></g>
<g><path style="opacity:1" fill="#ced5c8" d="M 168.5,245.5 C 169.976,247.5 171.809,249.167 174,250.5C 174.977,253.102 176.144,255.602 177.5,258C 173.43,256.467 169.43,254.634 165.5,252.5C 166.895,250.307 167.895,247.974 168.5,245.5 Z"/></g>
<g><path style="opacity:1" fill="#162b25" d="M 373.5,252.5 C 376.772,256.194 379.439,260.361 381.5,265C 381.167,265.5 380.833,266 380.5,266.5C 375.674,264.254 371.008,261.754 366.5,259C 369.288,257.281 371.621,255.115 373.5,252.5 Z"/></g>
<g><path style="opacity:1" fill="#122822" d="M 123.5,252.5 C 126.603,254.423 129.603,256.59 132.5,259C 127.289,261.947 121.955,264.28 116.5,266C 118.987,261.525 121.32,257.025 123.5,252.5 Z"/></g>
<g><path style="opacity:1" fill="#0f271f" d="M 159.5,249.5 C 160.043,249.56 160.376,249.893 160.5,250.5C 157.586,257.901 155.753,265.568 155,273.5C 150.609,269.612 146.776,265.279 143.5,260.5C 148.899,256.811 154.233,253.144 159.5,249.5 Z"/></g>
<g><path style="opacity:1" fill="#132922" d="M 338.5,250.5 C 344.605,253.054 350.272,256.387 355.5,260.5C 352.137,265.209 348.304,269.542 344,273.5C 342.341,265.861 340.508,258.194 338.5,250.5 Z"/></g>
<g><path style="opacity:1" fill="#cfcebf" d="M 238.5,307.5 C 237.601,306.528 236.434,305.862 235,305.5C 230.809,306.798 226.642,306.798 222.5,305.5C 222.611,304.883 222.944,304.383 223.5,304C 213.225,303.359 204.225,299.692 196.5,293C 195.251,292.26 194.251,292.427 193.5,293.5C 193.167,293.5 192.833,293.5 192.5,293.5C 192.368,290.203 190.702,288.537 187.5,288.5C 188.263,287.732 189.263,287.232 190.5,287C 185.646,282.926 181.312,278.426 177.5,273.5C 176.817,273.863 176.15,274.196 175.5,274.5C 176.244,271.05 174.91,269.384 171.5,269.5C 173.214,268.262 175.214,267.595 177.5,267.5C 177.337,265.143 177.503,262.81 178,260.5C 190.526,284.851 210.36,299.017 237.5,303C 238.38,304.356 238.714,305.856 238.5,307.5 Z"/></g>
<g><path style="opacity:1" fill="#0f281f" d="M 367.5,266.5 C 374.71,269.601 381.043,273.934 386.5,279.5C 383.264,286.322 378.431,291.655 372,295.5C 371.667,290.833 371.333,286.167 371,281.5C 369.67,276.516 368.504,271.516 367.5,266.5 Z"/></g>
<g><path style="opacity:1" fill="#0e2720" d="M 130.5,266.5 C 131.124,266.917 131.457,267.584 131.5,268.5C 128.47,277.246 126.804,286.246 126.5,295.5C 120.057,291.724 115.39,286.39 112.5,279.5C 117.959,274.367 123.959,270.034 130.5,266.5 Z"/></g>
<g><path style="opacity:1" fill="#0f2720" d="M 148.5,286.5 C 146.412,288.336 145.079,290.669 144.5,293.5C 143.778,293.918 143.278,294.584 143,295.5C 142.502,298.482 142.335,301.482 142.5,304.5C 139.833,304.5 137.167,304.5 134.5,304.5C 132.41,291.197 133.576,278.197 138,265.5C 138.667,264.167 139.333,264.167 140,265.5C 144.355,270.354 148.522,275.354 152.5,280.5C 150.722,282.264 149.389,284.264 148.5,286.5 Z"/></g>
<g><path style="opacity:1" fill="#112821" d="M 187.5,288.5 C 178.534,289.122 170.534,286.622 163.5,281C 167.075,278.046 171.075,275.879 175.5,274.5C 176.15,274.196 176.817,273.863 177.5,273.5C 181.312,278.426 185.646,282.926 190.5,287C 189.263,287.232 188.263,287.732 187.5,288.5 Z"/></g>
<g><path style="opacity:1" fill="#fbfcfb" d="M 351.5,340.5 C 346.082,342.317 341.082,341.484 336.5,338C 324.682,325.348 312.682,312.848 300.5,300.5C 298.929,299.691 297.262,299.357 295.5,299.5C 298.913,289.92 305.413,283.586 315,280.5C 316.967,280.542 318.801,281.042 320.5,282C 332.706,295.204 344.539,308.704 356,322.5C 358.861,329.67 357.361,335.67 351.5,340.5 Z"/></g>
<g><path style="opacity:1" fill="#0e2720" d="M 359.5,264.5 C 361.828,267.607 363.328,271.274 364,275.5C 365.784,285.145 365.951,294.811 364.5,304.5C 361.833,304.5 359.167,304.5 356.5,304.5C 356.737,300.727 356.237,297.06 355,293.5C 352.535,288.731 349.702,284.231 346.5,280C 351.031,274.972 355.364,269.805 359.5,264.5 Z"/></g>
<g><path style="opacity:1" fill="#e9eee9" d="M 300.5,274.5 C 302.912,274.244 304.579,275.244 305.5,277.5C 301.526,281.138 297.526,284.805 293.5,288.5C 292.57,282.358 294.904,277.691 300.5,274.5 Z"/></g>
<g><path style="opacity:1" fill="#1a271e" d="M 172.5,292.5 C 171.599,294.727 169.933,295.727 167.5,295.5C 166.657,293.164 166.157,290.831 166,288.5C 168.052,290.058 170.219,291.392 172.5,292.5 Z"/></g>
<g><path style="opacity:1" fill="#717355" d="M 349.5,299.5 C 345.862,295.526 342.195,291.526 338.5,287.5C 339.735,287.279 340.735,286.612 341.5,285.5C 345.466,289.456 348.133,294.123 349.5,299.5 Z"/></g>
<g><path style="opacity:1" fill="#746f47" d="M 172.5,292.5 C 179.014,294.819 185.68,295.152 192.5,293.5C 192.833,293.5 193.167,293.5 193.5,293.5C 196.256,297.017 197.923,301.017 198.5,305.5C 188.582,304.526 178.582,304.193 168.5,304.5C 168.806,301.615 168.473,298.948 167.5,296.5C 167.5,296.167 167.5,295.833 167.5,295.5C 169.933,295.727 171.599,294.727 172.5,292.5 Z"/></g>
<g><path style="opacity:1" fill="#10261f" d="M 109.5,287.5 C 112.03,290.688 114.696,293.855 117.5,297C 121.167,299.167 124.833,301.333 128.5,303.5C 123.863,304.43 119.196,305.097 114.5,305.5C 112.525,299.6 110.858,293.6 109.5,287.5 Z"/></g>
<g><path style="opacity:1" fill="#746f4e" d="M 160.5,294.5 C 161.414,297.728 161.747,301.061 161.5,304.5C 157.5,304.5 153.5,304.5 149.5,304.5C 149.335,301.482 149.502,298.482 150,295.5C 151.662,292.351 153.495,289.351 155.5,286.5C 156.117,286.389 156.617,286.056 157,285.5C 158.271,288.484 159.438,291.484 160.5,294.5 Z"/></g>
<g><path style="opacity:1" fill="#0e271d" d="M 222.5,305.5 C 220.827,306.343 219.66,307.676 219,309.5C 217.775,314.085 217.275,318.752 217.5,323.5C 213.774,323.823 210.107,323.489 206.5,322.5C 210.117,315.066 208.117,309.733 200.5,306.5C 200.158,305.662 199.492,305.328 198.5,305.5C 197.923,301.017 196.256,297.017 193.5,293.5C 194.251,292.427 195.251,292.26 196.5,293C 204.225,299.692 213.225,303.359 223.5,304C 222.944,304.383 222.611,304.883 222.5,305.5 Z"/></g>
<g><path style="opacity:1" fill="#142922" d="M 388.5,287.5 C 389.043,287.56 389.376,287.893 389.5,288.5C 387.361,294.062 385.694,299.728 384.5,305.5C 379.848,305.002 375.181,304.669 370.5,304.5C 370.5,303.5 370.5,302.5 370.5,301.5C 378.491,299.522 384.491,294.855 388.5,287.5 Z"/></g>
<g><path style="opacity:1" fill="#d2cfc0" d="M 275.5,305.5 C 273.435,305.953 271.768,306.953 270.5,308.5C 268.805,307.174 267.472,307.507 266.5,309.5C 264.393,308.532 262.059,308.198 259.5,308.5C 259.5,306.5 259.5,304.5 259.5,302.5C 268.084,301.639 276.084,298.972 283.5,294.5C 283.833,294.667 284.167,294.833 284.5,295C 283.887,297.147 283.221,299.314 282.5,301.5C 280.5,302.167 278.5,302.833 276.5,303.5C 275.702,303.957 275.369,304.624 275.5,305.5 Z"/></g>
<g><path style="opacity:1" fill="#f8f6ed" d="M 148.5,286.5 C 148.415,287.995 149.081,288.995 150.5,289.5C 151.695,287.703 153.362,286.703 155.5,286.5C 153.495,289.351 151.662,292.351 150,295.5C 149.502,298.482 149.335,301.482 149.5,304.5C 153.5,304.5 157.5,304.5 161.5,304.5C 161.747,301.061 161.414,297.728 160.5,294.5C 161.376,294.369 162.043,294.702 162.5,295.5C 163.577,298.474 163.577,301.474 162.5,304.5C 164.167,304.5 165.833,304.5 167.5,304.5C 167.5,301.833 167.5,299.167 167.5,296.5C 168.473,298.948 168.806,301.615 168.5,304.5C 178.582,304.193 188.582,304.526 198.5,305.5C 199.492,305.328 200.158,305.662 200.5,306.5C 201.664,309.422 202.664,312.422 203.5,315.5C 203.597,320.667 201.264,324.001 196.5,325.5C 192.558,324.4 188.558,324.233 184.5,325C 183.833,325.667 183.167,326.333 182.5,327C 182.507,339.41 182.674,351.91 183,364.5C 184,363.167 185,363.167 186,364.5C 186.667,360.167 186.667,355.833 186,351.5C 185.5,351 185,350.5 184.5,350C 185.691,349.302 186.691,348.469 187.5,347.5C 187.5,354.5 187.5,361.5 187.5,368.5C 187.34,370.153 186.674,371.486 185.5,372.5C 184.883,372.389 184.383,372.056 184,371.5C 177.283,377.274 171.116,376.774 165.5,370C 167.053,367.163 166.72,364.663 164.5,362.5C 164.302,365.785 162.635,367.452 159.5,367.5C 159.5,366.5 159.5,365.5 159.5,364.5C 161.45,359.265 162.117,353.598 161.5,347.5C 155.158,347.334 148.825,347.5 142.5,348C 143.056,348.383 143.389,348.883 143.5,349.5C 142.069,348.918 140.736,348.085 139.5,347C 142.833,346.667 146.167,346.333 149.5,346C 148.062,345.781 146.729,345.281 145.5,344.5C 146.909,344.346 148.576,344.179 150.5,344C 151.598,343.23 151.598,342.397 150.5,341.5C 149.518,338.038 149.185,334.371 149.5,330.5C 147.61,330.297 146.11,330.963 145,332.5C 144.819,335.695 144.319,338.695 143.5,341.5C 143.5,337.5 143.5,333.5 143.5,329.5C 140.5,329.5 137.5,329.5 134.5,329.5C 134.5,327.167 134.5,324.833 134.5,322.5C 145.833,322.5 157.167,322.5 168.5,322.5C 168.333,338.503 168.5,354.503 169,370.5C 174.309,375.067 178.309,374.067 181,367.5C 181.5,352.504 181.667,337.504 181.5,322.5C 187.537,322.829 193.537,322.496 199.5,321.5C 202.875,316.815 201.875,313.648 196.5,312C 175.836,311.5 155.169,311.333 134.5,311.5C 134.308,318.083 131.974,323.75 127.5,328.5C 129.523,331.889 131.523,335.222 133.5,338.5C 129.253,335.581 126.587,331.581 125.5,326.5C 127.184,324.649 129.017,322.982 131,321.5C 131.757,317.002 133.257,312.835 135.5,309C 139.855,309.419 144.188,309.253 148.5,308.5C 147.027,306.605 145.36,304.939 143.5,303.5C 144.098,302.205 144.598,300.872 145,299.5C 145.249,300.624 145.749,301.624 146.5,302.5C 146.833,302.167 147.167,301.833 147.5,301.5C 146.787,299.224 146.287,296.891 146,294.5C 145.617,293.944 145.117,293.611 144.5,293.5C 145.079,290.669 146.412,288.336 148.5,286.5 Z"/></g>
<g><path style="opacity:1" fill="#f4f7f6" d="M 222.5,305.5 C 226.642,306.798 230.809,306.798 235,305.5C 236.434,305.862 237.601,306.528 238.5,307.5C 239.088,312.683 240.421,317.683 242.5,322.5C 246.783,323.492 251.116,323.826 255.5,323.5C 256.833,318.501 258.166,313.501 259.5,308.5C 262.059,308.198 264.393,308.532 266.5,309.5C 264.043,313.87 262.376,318.536 261.5,323.5C 266.167,323.5 270.833,323.5 275.5,323.5C 275.622,317.866 273.955,312.866 270.5,308.5C 271.768,306.953 273.435,305.953 275.5,305.5C 277.708,306.894 279.208,308.894 280,311.5C 281.156,315.418 281.656,319.418 281.5,323.5C 284.167,323.5 286.833,323.5 289.5,323.5C 289.918,324.222 290.584,324.722 291.5,325C 290.359,325.741 290.359,326.575 291.5,327.5C 288.023,328.167 284.689,328.834 281.5,329.5C 280.343,334.798 279.177,340.131 278,345.5C 293.873,349.702 303.039,359.869 305.5,376C 307.748,377.914 310.248,379.414 313,380.5C 314.726,380.054 316.226,379.221 317.5,378C 315.959,376.629 314.625,375.129 313.5,373.5C 313.56,372.957 313.893,372.624 314.5,372.5C 317.188,374.119 320.021,375.453 323,376.5C 325.487,374.719 328.321,373.553 331.5,373C 332.88,371.676 333.214,370.343 332.5,369C 334.027,367.968 335.36,366.801 336.5,365.5C 340.12,363.547 343.12,360.881 345.5,357.5C 346.473,357.013 347.473,356.513 348.5,356C 357.013,347.835 364.346,338.835 370.5,329C 369.586,327.594 368.92,326.094 368.5,324.5C 368.957,322.227 370.29,320.894 372.5,320.5C 373.171,321.847 373.171,323.014 372.5,324C 374.282,324.814 375.782,325.981 377,327.5C 377.783,329.433 377.283,330.933 375.5,332C 376.252,332.671 376.586,333.504 376.5,334.5C 349.958,372.474 313.625,395.307 267.5,403C 224.55,407.514 186.55,396.014 153.5,368.5C 153.845,365.935 152.512,364.101 149.5,363C 150.263,362.056 151.263,361.556 152.5,361.5C 154.204,363.849 156.537,364.849 159.5,364.5C 159.5,365.5 159.5,366.5 159.5,367.5C 162.635,367.452 164.302,365.785 164.5,362.5C 166.72,364.663 167.053,367.163 165.5,370C 171.116,376.774 177.283,377.274 184,371.5C 184.383,372.056 184.883,372.389 185.5,372.5C 184.746,375.091 183.079,376.924 180.5,378C 185.447,381.582 189.613,380.749 193,375.5C 195.611,359.387 204.778,349.054 220.5,344.5C 218.603,339.681 217.603,334.681 217.5,329.5C 213.818,329.335 210.152,329.501 206.5,330C 210.706,335.557 210.372,340.724 205.5,345.5C 202.63,346.634 199.63,347.3 196.5,347.5C 193.5,347.5 190.5,347.5 187.5,347.5C 186.691,348.469 185.691,349.302 184.5,350C 185,350.5 185.5,351 186,351.5C 186.667,355.833 186.667,360.167 186,364.5C 185,363.167 184,363.167 183,364.5C 182.674,351.91 182.507,339.41 182.5,327C 183.167,326.333 183.833,325.667 184.5,325C 188.558,324.233 192.558,324.4 196.5,325.5C 201.264,324.001 203.597,320.667 203.5,315.5C 202.664,312.422 201.664,309.422 200.5,306.5C 208.117,309.733 210.117,315.066 206.5,322.5C 210.107,323.489 213.774,323.823 217.5,323.5C 217.275,318.752 217.775,314.085 219,309.5C 219.66,307.676 220.827,306.343 222.5,305.5 Z"/></g>
<g><path style="opacity:1" fill="#7d764f" d="M 143.5,341.5 C 139.572,342.024 136.239,341.024 133.5,338.5C 131.523,335.222 129.523,331.889 127.5,328.5C 131.974,323.75 134.308,318.083 134.5,311.5C 155.169,311.333 175.836,311.5 196.5,312C 201.875,313.648 202.875,316.815 199.5,321.5C 193.537,322.496 187.537,322.829 181.5,322.5C 181.667,337.504 181.5,352.504 181,367.5C 178.309,374.067 174.309,375.067 169,370.5C 168.5,354.503 168.333,338.503 168.5,322.5C 157.167,322.5 145.833,322.5 134.5,322.5C 134.5,324.833 134.5,327.167 134.5,329.5C 137.5,329.5 140.5,329.5 143.5,329.5C 143.5,333.5 143.5,337.5 143.5,341.5 Z"/></g>
<g><path style="opacity:1" fill="#122821" d="M 372.5,320.5 C 371.422,317.598 370.756,314.598 370.5,311.5C 380.675,311.519 382.175,315.185 375,322.5C 374.292,321.619 373.458,320.953 372.5,320.5 Z"/></g>
<g><path style="opacity:1" fill="#162721" d="M 122.5,311.5 C 124.5,311.5 126.5,311.5 128.5,311.5C 125.493,325.052 122.159,325.386 118.5,312.5C 120.099,312.768 121.432,312.434 122.5,311.5 Z"/></g>
<g><path style="opacity:1" fill="#0e2720" d="M 228.5,307.5 C 229.496,307.414 230.329,307.748 231,308.5C 233.13,313.059 234.964,317.726 236.5,322.5C 231.88,323.493 227.214,323.827 222.5,323.5C 222.814,317.537 224.814,312.204 228.5,307.5 Z"/></g>
<g><path style="opacity:1" fill="#132820" d="M 270.5,308.5 C 273.955,312.866 275.622,317.866 275.5,323.5C 270.833,323.5 266.167,323.5 261.5,323.5C 262.376,318.536 264.043,313.87 266.5,309.5C 267.472,307.507 268.805,307.174 270.5,308.5 Z"/></g>
<g><path style="opacity:1" fill="#d4d1c1" d="M 295.5,299.5 C 297.262,299.357 298.929,299.691 300.5,300.5C 312.682,312.848 324.682,325.348 336.5,338C 341.082,341.484 346.082,342.317 351.5,340.5C 345.55,346.033 338.884,346.866 331.5,343C 319.667,329.833 307.833,316.667 296,303.5C 295.51,302.207 295.343,300.873 295.5,299.5 Z"/></g>
<g><path style="opacity:1" fill="#102721" d="M 409.5,225.5 C 416.163,291.006 393.163,343.506 340.5,383C 296.808,411.735 249.808,418.735 199.5,404C 164.926,390.743 136.759,369.243 115,339.5C 113.473,336.447 111.973,333.447 110.5,330.5C 111.059,328.14 112.392,325.807 114.5,323.5C 121,334.474 128.5,344.807 137,354.5C 142.253,359.531 147.753,364.197 153.5,368.5C 186.55,396.014 224.55,407.514 267.5,403C 313.625,395.307 349.958,372.474 376.5,334.5C 383.775,323.62 389.775,311.953 394.5,299.5C 396.187,300.867 397.853,301.867 399.5,302.5C 400.086,302.291 400.586,301.957 401,301.5C 402.789,291.111 405.289,280.944 408.5,271C 408.499,269.601 408.165,268.101 407.5,266.5C 407.846,265.304 408.346,265.304 409,266.5C 410.71,252.854 410.876,239.187 409.5,225.5 Z"/></g>
<g><path style="opacity:1" fill="#76827f" d="M 254.5,340.5 C 256.156,342.06 258.156,343.06 260.5,343.5C 258.167,343.5 255.833,343.5 253.5,343.5C 253.263,342.209 253.596,341.209 254.5,340.5 Z"/></g>
<g><path style="opacity:1" fill="#6f6b48" d="M 303.5,327.5 C 305.804,330.141 308.138,332.808 310.5,335.5C 310.5,337.5 310.5,339.5 310.5,341.5C 306.154,341.666 301.821,341.499 297.5,341C 297,340.5 296.5,340 296,339.5C 297.092,335.94 298.259,332.273 299.5,328.5C 301.099,328.768 302.432,328.434 303.5,327.5 Z"/></g>
<g><path style="opacity:1" fill="#122820" d="M 281.5,329.5 C 284.898,329.18 288.232,329.513 291.5,330.5C 287.321,336.448 287.988,341.781 293.5,346.5C 296.811,354.478 302.478,360.145 310.5,363.5C 310.024,367.378 311.024,370.712 313.5,373.5C 314.625,375.129 315.959,376.629 317.5,378C 316.226,379.221 314.726,380.054 313,380.5C 310.248,379.414 307.748,377.914 305.5,376C 303.039,359.869 293.873,349.702 278,345.5C 279.177,340.131 280.343,334.798 281.5,329.5 Z"/></g>
<g><path style="opacity:1" fill="#0b261f" d="M 239.5,330.5 C 240.343,334.522 242.01,338.188 244.5,341.5C 238.808,342.428 233.141,343.428 227.5,344.5C 225.248,340.833 223.915,336.833 223.5,332.5C 228.396,330.554 233.729,329.887 239.5,330.5 Z"/></g>
<g><path style="opacity:1" fill="#11271f" d="M 185.5,372.5 C 186.674,371.486 187.34,370.153 187.5,368.5C 188.461,366.735 188.795,364.735 188.5,362.5C 196.496,359.17 202.163,353.504 205.5,345.5C 210.372,340.724 210.706,335.557 206.5,330C 210.152,329.501 213.818,329.335 217.5,329.5C 217.603,334.681 218.603,339.681 220.5,344.5C 204.778,349.054 195.611,359.387 193,375.5C 189.613,380.749 185.447,381.582 180.5,378C 183.079,376.924 184.746,375.091 185.5,372.5 Z"/></g>
<g><path style="opacity:1" fill="#7b7751" d="M 187.5,329.5 C 191.555,329.176 195.555,329.509 199.5,330.5C 200.315,332.955 201.315,335.289 202.5,337.5C 202.471,339.029 201.804,340.196 200.5,341C 196.179,341.499 191.846,341.666 187.5,341.5C 187.5,337.5 187.5,333.5 187.5,329.5 Z"/></g>
<g><path style="opacity:1" fill="#22302b" d="M 245.5,329.5 C 247.924,329.192 250.257,329.526 252.5,330.5C 251.333,332.833 250.167,335.167 249,337.5C 247.007,335.182 245.841,332.516 245.5,329.5 Z"/></g>
<g><path style="opacity:1" fill="#7b744f" d="M 150.5,341.5 C 150.5,337.5 150.5,333.5 150.5,329.5C 154.167,329.5 157.833,329.5 161.5,329.5C 161.5,333.5 161.5,337.5 161.5,341.5C 157.833,341.5 154.167,341.5 150.5,341.5 Z"/></g>
<g><path style="opacity:1" fill="#0c2820" d="M 258.5,330.5 C 264.271,329.887 269.604,330.554 274.5,332.5C 274.085,336.833 272.752,340.833 270.5,344.5C 267.242,343.583 263.909,343.249 260.5,343.5C 258.156,343.06 256.156,342.06 254.5,340.5C 255.831,337.171 257.164,333.838 258.5,330.5 Z"/></g>
<g><path style="opacity:1" fill="#82908c" d="M 258.5,330.5 C 263.975,329.511 269.642,329.178 275.5,329.5C 275.737,330.791 275.404,331.791 274.5,332.5C 269.604,330.554 264.271,329.887 258.5,330.5 Z"/></g>
<g><path style="opacity:1" fill="#85928e" d="M 239.5,330.5 C 233.729,329.887 228.396,330.554 223.5,332.5C 222.596,331.791 222.263,330.791 222.5,329.5C 228.358,329.178 234.025,329.511 239.5,330.5 Z"/></g>
<g><path style="opacity:1" fill="#7a744f" d="M 159.5,364.5 C 154.996,361.342 151.662,357.342 149.5,352.5C 146.687,352.975 144.687,351.975 143.5,349.5C 143.389,348.883 143.056,348.383 142.5,348C 148.825,347.5 155.158,347.334 161.5,347.5C 162.117,353.598 161.45,359.265 159.5,364.5 Z"/></g>
<g><path style="opacity:1" fill="#10271f" d="M 255.5,348.5 C 260.181,348.669 264.848,349.002 269.5,349.5C 268.244,354.686 266.41,359.686 264,364.5C 260.887,359.271 258.053,353.938 255.5,348.5 Z"/></g>
<g><path style="opacity:1" fill="#6e6949" d="M 293.5,346.5 C 299.106,347.407 304.773,347.74 310.5,347.5C 310.5,352.833 310.5,358.167 310.5,363.5C 302.478,360.145 296.811,354.478 293.5,346.5 Z"/></g>
<g><path style="opacity:1" fill="#a2a38b" d="M 187.5,347.5 C 190.5,347.5 193.5,347.5 196.5,347.5C 194.052,348.473 191.385,348.806 188.5,348.5C 188.5,353.167 188.5,357.833 188.5,362.5C 188.795,364.735 188.461,366.735 187.5,368.5C 187.5,361.5 187.5,354.5 187.5,347.5 Z"/></g>
<g><path style="opacity:1" fill="#726e4a" d="M 205.5,345.5 C 202.163,353.504 196.496,359.17 188.5,362.5C 188.5,357.833 188.5,353.167 188.5,348.5C 191.385,348.806 194.052,348.473 196.5,347.5C 199.63,347.3 202.63,346.634 205.5,345.5 Z"/></g>
<g><path style="opacity:1" fill="#eceae0" d="M 303.5,327.5 C 302.432,328.434 301.099,328.768 299.5,328.5C 298.259,332.273 297.092,335.94 296,339.5C 296.5,340 297,340.5 297.5,341C 301.821,341.499 306.154,341.666 310.5,341.5C 310.5,339.5 310.5,337.5 310.5,335.5C 313.55,337.549 315.883,340.216 317.5,343.5C 317.334,351.84 317.5,360.173 318,368.5C 321.125,374.205 325.125,374.872 330,370.5C 330.499,365.177 330.666,359.844 330.5,354.5C 332.297,355.73 334.297,356.396 336.5,356.5C 336.5,359.5 336.5,362.5 336.5,365.5C 335.36,366.801 334.027,367.968 332.5,369C 333.214,370.343 332.88,371.676 331.5,373C 328.321,373.553 325.487,374.719 323,376.5C 320.021,375.453 317.188,374.119 314.5,372.5C 313.893,372.624 313.56,372.957 313.5,373.5C 311.024,370.712 310.024,367.378 310.5,363.5C 310.5,358.167 310.5,352.833 310.5,347.5C 304.773,347.74 299.106,347.407 293.5,346.5C 287.988,341.781 287.321,336.448 291.5,330.5C 288.232,329.513 284.898,329.18 281.5,329.5C 284.689,328.834 288.023,328.167 291.5,327.5C 290.359,326.575 290.359,325.741 291.5,325C 290.584,324.722 289.918,324.222 289.5,323.5C 290.376,323.631 291.043,323.298 291.5,322.5C 289.649,319.375 289.149,316.042 290,312.5C 294.995,317.237 299.495,322.237 303.5,327.5 Z"/></g>
<g><path style="opacity:1" fill="#142a22" d="M 233.5,348.5 C 236.572,348.183 239.572,348.516 242.5,349.5C 240.173,354.825 237.34,359.825 234,364.5C 231.873,359.952 230.039,355.285 228.5,350.5C 230.291,349.83 231.958,349.163 233.5,348.5 Z"/></g>
<g><path style="opacity:1" fill="#0e2921" d="M 218.5,351.5 C 220.167,351.5 221.833,351.5 223.5,351.5C 224.378,356.469 226.045,361.135 228.5,365.5C 218.877,366.823 209.544,369.156 200.5,372.5C 200.167,372 199.833,371.5 199.5,371C 203.341,361.993 209.675,355.493 218.5,351.5 Z"/></g>
<g><path style="opacity:1" fill="#6d6843" d="M 317.5,343.5 C 321.47,347.46 325.804,351.127 330.5,354.5C 330.666,359.844 330.499,365.177 330,370.5C 325.125,374.872 321.125,374.205 318,368.5C 317.5,360.173 317.334,351.84 317.5,343.5 Z"/></g>
<g><path style="opacity:1" fill="#727252" d="M 336.5,356.5 C 339.391,357.403 342.391,357.736 345.5,357.5C 343.12,360.881 340.12,363.547 336.5,365.5C 336.5,362.5 336.5,359.5 336.5,356.5 Z"/></g>
<g><path style="opacity:1" fill="#112920" d="M 248.5,350.5 C 251.58,355.43 254.913,360.263 258.5,365C 252.167,365.667 245.833,365.667 239.5,365C 243.148,360.53 246.148,355.696 248.5,350.5 Z"/></g>
<g><path style="opacity:1" fill="#122923" d="M 275.5,351.5 C 288.133,353.307 295.633,360.307 298,372.5C 288.703,369.573 279.203,367.406 269.5,366C 271.991,361.357 273.991,356.523 275.5,351.5 Z"/></g>
<g><path style="opacity:1" fill="#0e2720" d="M 238.5,371.5 C 245.532,371.17 252.532,371.503 259.5,372.5C 256.667,378.17 253.334,383.503 249.5,388.5C 246.534,385.909 244.034,382.909 242,379.5C 240.519,376.89 239.352,374.223 238.5,371.5 Z"/></g>
<g><path style="opacity:1" fill="#0f2a22" d="M 220.5,372.5 C 223.187,372.336 225.854,372.503 228.5,373C 219.577,387.144 207.577,390.811 192.5,384C 195.228,381.608 198.228,379.608 201.5,378C 207.835,375.711 214.169,373.877 220.5,372.5 Z"/></g>
<g><path style="opacity:1" fill="#102722" d="M 269.5,373.5 C 280.405,373.382 291.072,375.548 301.5,380C 302.984,381.574 304.651,382.907 306.5,384C 302.51,385.327 298.51,386.66 294.5,388C 289.175,388.117 284.175,386.784 279.5,384C 275.935,380.604 272.602,377.104 269.5,373.5 Z"/></g>
<g><path style="opacity:1" fill="#0e2821" d="M 232.5,376.5 C 233.376,376.369 234.043,376.702 234.5,377.5C 237.242,383.07 240.576,388.237 244.5,393C 242.562,394.872 240.229,395.705 237.5,395.5C 230.283,395.059 223.283,393.726 216.5,391.5C 223.816,388.514 229.15,383.514 232.5,376.5 Z"/></g>
<g><path style="opacity:1" fill="#102920" d="M 263.5,376.5 C 268.458,383.286 274.791,388.452 282.5,392C 275.436,393.779 268.269,394.946 261,395.5C 258.109,395.74 255.609,394.907 253.5,393C 257.735,388.026 261.069,382.526 263.5,376.5 Z"/></g>
</svg>
